# Blender v2.76 (sub 0) OBJ File: 'alphabet.blend'
# www.blender.org
mtllib 5.mtl
o 5_Mesh.088
v 0.404000 0.000000 -0.682000
v 0.101000 0.000000 -0.682000
v 0.101000 0.000000 -0.327000
v 0.137213 0.000000 -0.333863
v 0.170787 0.000000 -0.336653
v 0.201625 0.000000 -0.335672
v 0.229630 0.000000 -0.331222
v 0.254704 0.000000 -0.323606
v 0.276750 0.000000 -0.313125
v 0.295671 0.000000 -0.300082
v 0.311370 0.000000 -0.284778
v 0.323750 0.000000 -0.267516
v 0.332713 0.000000 -0.248597
v 0.338162 0.000000 -0.228325
v 0.340000 0.000000 -0.207000
v 0.338696 0.000000 -0.190505
v 0.334903 0.000000 -0.174625
v 0.328797 0.000000 -0.159516
v 0.320556 0.000000 -0.145333
v 0.310356 0.000000 -0.132234
v 0.298375 0.000000 -0.120375
v 0.284790 0.000000 -0.109911
v 0.269778 0.000000 -0.101000
v 0.253516 0.000000 -0.093797
v 0.236181 0.000000 -0.088458
v 0.217950 0.000000 -0.085141
v 0.199000 0.000000 -0.084000
v 0.186501 0.000000 -0.084354
v 0.174005 0.000000 -0.085412
v 0.161516 0.000000 -0.087172
v 0.149037 0.000000 -0.089630
v 0.136572 0.000000 -0.092782
v 0.124125 0.000000 -0.096625
v 0.111698 0.000000 -0.101156
v 0.099296 0.000000 -0.106370
v 0.086922 0.000000 -0.112266
v 0.074579 0.000000 -0.118838
v 0.062270 0.000000 -0.126084
v 0.050000 0.000000 -0.134000
v 0.050000 0.000000 -0.033000
v 0.064514 0.000000 -0.025872
v 0.078611 0.000000 -0.019472
v 0.092375 0.000000 -0.013781
v 0.105889 0.000000 -0.008778
v 0.119236 0.000000 -0.004441
v 0.132500 0.000000 -0.000750
v 0.145764 0.000000 0.002316
v 0.159111 0.000000 0.004778
v 0.172625 0.000000 0.006656
v 0.186389 0.000000 0.007972
v 0.200486 0.000000 0.008747
v 0.215000 0.000000 0.009000
v 0.246487 0.000000 0.007117
v 0.276310 0.000000 0.001602
v 0.304266 0.000000 -0.007344
v 0.330148 0.000000 -0.019519
v 0.353753 0.000000 -0.034721
v 0.374875 0.000000 -0.052750
v 0.393310 0.000000 -0.073404
v 0.408852 0.000000 -0.096481
v 0.421297 0.000000 -0.121781
v 0.430440 0.000000 -0.149102
v 0.436076 0.000000 -0.178242
v 0.438000 0.000000 -0.209000
v 0.436061 0.000000 -0.239851
v 0.430324 0.000000 -0.269227
v 0.420906 0.000000 -0.296859
v 0.407926 0.000000 -0.322481
v 0.391501 0.000000 -0.345826
v 0.371750 0.000000 -0.366625
v 0.348790 0.000000 -0.384612
v 0.322741 0.000000 -0.399519
v 0.293719 0.000000 -0.411078
v 0.261843 0.000000 -0.419023
v 0.227230 0.000000 -0.423086
v 0.190000 0.000000 -0.423000
v 0.190000 0.000000 -0.594000
v 0.404000 0.000000 -0.594000
vn 0.000000 1.000000 0.000000
usemtl None
s off
f 3//1 77//1 2//1
f 77//1 1//1 2//1
f 77//1 78//1 1//1
f 3//1 76//1 77//1
f 76//1 74//1 75//1
f 3//1 74//1 76//1
f 3//1 73//1 74//1
f 3//1 72//1 73//1
f 3//1 71//1 72//1
f 3//1 4//1 71//1
f 4//1 70//1 71//1
f 4//1 5//1 70//1
f 5//1 69//1 70//1
f 5//1 6//1 69//1
f 6//1 68//1 69//1
f 7//1 68//1 6//1
f 8//1 68//1 7//1
f 9//1 68//1 8//1
f 9//1 67//1 68//1
f 10//1 67//1 9//1
f 11//1 67//1 10//1
f 11//1 66//1 67//1
f 12//1 66//1 11//1
f 12//1 65//1 66//1
f 13//1 65//1 12//1
f 14//1 65//1 13//1
f 14//1 64//1 65//1
f 15//1 64//1 14//1
f 15//1 63//1 64//1
f 16//1 63//1 15//1
f 17//1 63//1 16//1
f 17//1 62//1 63//1
f 18//1 62//1 17//1
f 19//1 62//1 18//1
f 19//1 61//1 62//1
f 20//1 61//1 19//1
f 40//1 38//1 39//1
f 21//1 61//1 20//1
f 40//1 37//1 38//1
f 21//1 60//1 61//1
f 22//1 60//1 21//1
f 40//1 36//1 37//1
f 40//1 35//1 36//1
f 23//1 60//1 22//1
f 40//1 34//1 35//1
f 40//1 33//1 34//1
f 24//1 60//1 23//1
f 40//1 32//1 33//1
f 24//1 59//1 60//1
f 25//1 59//1 24//1
f 40//1 31//1 32//1
f 40//1 30//1 31//1
f 26//1 59//1 25//1
f 40//1 29//1 30//1
f 40//1 28//1 29//1
f 27//1 59//1 26//1
f 40//1 27//1 28//1
f 40//1 59//1 27//1
f 40//1 58//1 59//1
f 40//1 57//1 58//1
f 40//1 56//1 57//1
f 41//1 56//1 40//1
f 42//1 56//1 41//1
f 42//1 55//1 56//1
f 43//1 55//1 42//1
f 44//1 55//1 43//1
f 45//1 55//1 44//1
f 45//1 54//1 55//1
f 46//1 54//1 45//1
f 47//1 54//1 46//1
f 47//1 53//1 54//1
f 48//1 53//1 47//1
f 49//1 53//1 48//1
f 50//1 53//1 49//1
f 50//1 52//1 53//1
f 51//1 52//1 50//1
