# Blender v2.76 (sub 0) OBJ File: 'alphabet.blend'
# www.blender.org
mtllib @.mtl
o @_Mesh
v 0.891000 0.000000 -0.009000
v 0.875066 0.000000 0.011538
v 0.856778 0.000000 0.031056
v 0.836156 0.000000 0.049406
v 0.813222 0.000000 0.066444
v 0.787997 0.000000 0.082024
v 0.760500 0.000000 0.096000
v 0.730753 0.000000 0.108226
v 0.698778 0.000000 0.118556
v 0.664594 0.000000 0.126844
v 0.628222 0.000000 0.132944
v 0.589684 0.000000 0.136712
v 0.549000 0.000000 0.138000
v 0.484608 0.000000 0.135148
v 0.425032 0.000000 0.126681
v 0.370422 0.000000 0.112734
v 0.320926 0.000000 0.093444
v 0.276694 0.000000 0.068946
v 0.237875 0.000000 0.039375
v 0.204619 0.000000 0.004866
v 0.177074 0.000000 -0.034444
v 0.155391 0.000000 -0.078422
v 0.139718 0.000000 -0.126931
v 0.130204 0.000000 -0.179835
v 0.127000 0.000000 -0.237000
v 0.130520 0.000000 -0.296120
v 0.140824 0.000000 -0.352213
v 0.157531 0.000000 -0.404875
v 0.180259 0.000000 -0.453704
v 0.208626 0.000000 -0.498296
v 0.242250 0.000000 -0.538250
v 0.280749 0.000000 -0.573162
v 0.323741 0.000000 -0.602630
v 0.370844 0.000000 -0.626250
v 0.421676 0.000000 -0.643620
v 0.475855 0.000000 -0.654338
v 0.533000 0.000000 -0.658000
v 0.582111 0.000000 -0.655300
v 0.628718 0.000000 -0.647403
v 0.672484 0.000000 -0.634609
v 0.713074 0.000000 -0.617222
v 0.750150 0.000000 -0.595543
v 0.783375 0.000000 -0.569875
v 0.812413 0.000000 -0.540519
v 0.836926 0.000000 -0.507778
v 0.856578 0.000000 -0.471953
v 0.871032 0.000000 -0.433347
v 0.879952 0.000000 -0.392262
v 0.883000 0.000000 -0.349000
v 0.880085 0.000000 -0.305645
v 0.871926 0.000000 -0.266079
v 0.859406 0.000000 -0.230297
v 0.843407 0.000000 -0.198296
v 0.824811 0.000000 -0.170074
v 0.804500 0.000000 -0.145625
v 0.783355 0.000000 -0.124947
v 0.762259 0.000000 -0.108037
v 0.742094 0.000000 -0.094891
v 0.723741 0.000000 -0.085505
v 0.708082 0.000000 -0.079876
v 0.696000 0.000000 -0.078000
v 0.688916 0.000000 -0.078493
v 0.682657 0.000000 -0.079944
v 0.677219 0.000000 -0.082313
v 0.672593 0.000000 -0.085556
v 0.668772 0.000000 -0.089632
v 0.665750 0.000000 -0.094500
v 0.663520 0.000000 -0.100118
v 0.662074 0.000000 -0.106444
v 0.661406 0.000000 -0.113438
v 0.661509 0.000000 -0.121056
v 0.662376 0.000000 -0.129257
v 0.664000 0.000000 -0.138000
v 0.746000 0.000000 -0.515000
v 0.658000 0.000000 -0.515000
v 0.641000 0.000000 -0.439000
v 0.631901 0.000000 -0.452955
v 0.622125 0.000000 -0.465806
v 0.611703 0.000000 -0.477531
v 0.600667 0.000000 -0.488111
v 0.589047 0.000000 -0.497524
v 0.576875 0.000000 -0.505750
v 0.564182 0.000000 -0.512767
v 0.551000 0.000000 -0.518556
v 0.537359 0.000000 -0.523094
v 0.523292 0.000000 -0.526361
v 0.508828 0.000000 -0.528337
v 0.494000 0.000000 -0.529000
v 0.462113 0.000000 -0.525899
v 0.430741 0.000000 -0.516944
v 0.400313 0.000000 -0.502656
v 0.371259 0.000000 -0.483556
v 0.344012 0.000000 -0.460163
v 0.319000 0.000000 -0.433000
v 0.296655 0.000000 -0.402587
v 0.277407 0.000000 -0.369444
v 0.261688 0.000000 -0.334094
v 0.249926 0.000000 -0.297056
v 0.242553 0.000000 -0.258851
v 0.240000 0.000000 -0.220000
v 0.241555 0.000000 -0.188763
v 0.246106 0.000000 -0.159185
v 0.253484 0.000000 -0.131469
v 0.263519 0.000000 -0.105815
v 0.276039 0.000000 -0.082425
v 0.290875 0.000000 -0.061500
v 0.307857 0.000000 -0.043242
v 0.326815 0.000000 -0.027852
v 0.347578 0.000000 -0.015531
v 0.369977 0.000000 -0.006481
v 0.393841 0.000000 -0.000904
v 0.419000 0.000000 0.001000
v 0.431365 0.000000 0.000380
v 0.443921 0.000000 -0.001458
v 0.456609 0.000000 -0.004484
v 0.469370 0.000000 -0.008667
v 0.482145 0.000000 -0.013974
v 0.494875 0.000000 -0.020375
v 0.507501 0.000000 -0.027839
v 0.519963 0.000000 -0.036333
v 0.532203 0.000000 -0.045828
v 0.544162 0.000000 -0.056292
v 0.555781 0.000000 -0.067693
v 0.567000 0.000000 -0.080000
v 0.567686 0.000000 -0.066833
v 0.569741 0.000000 -0.054829
v 0.573156 0.000000 -0.043984
v 0.577926 0.000000 -0.034296
v 0.584043 0.000000 -0.025761
v 0.591500 0.000000 -0.018375
v 0.600291 0.000000 -0.012135
v 0.610407 0.000000 -0.007037
v 0.621844 0.000000 -0.003078
v 0.634593 0.000000 -0.000255
v 0.648647 0.000000 0.001437
v 0.664000 0.000000 0.002000
v 0.701046 0.000000 -0.001487
v 0.737366 0.000000 -0.011565
v 0.772484 0.000000 -0.027656
v 0.805926 0.000000 -0.049185
v 0.837215 0.000000 -0.075575
v 0.865875 0.000000 -0.106250
v 0.891431 0.000000 -0.140633
v 0.913407 0.000000 -0.178148
v 0.931328 0.000000 -0.218219
v 0.944718 0.000000 -0.260269
v 0.953100 0.000000 -0.303721
v 0.956000 0.000000 -0.348000
v 0.952396 0.000000 -0.401922
v 0.941838 0.000000 -0.452958
v 0.924703 0.000000 -0.500766
v 0.901370 0.000000 -0.545000
v 0.872218 0.000000 -0.585318
v 0.837625 0.000000 -0.621375
v 0.797969 0.000000 -0.652828
v 0.753630 0.000000 -0.679333
v 0.704984 0.000000 -0.700547
v 0.652412 0.000000 -0.716125
v 0.596291 0.000000 -0.725724
v 0.537000 0.000000 -0.729000
v 0.453552 0.000000 -0.723192
v 0.379000 0.000000 -0.706616
v 0.313031 0.000000 -0.680547
v 0.255333 0.000000 -0.646259
v 0.205594 0.000000 -0.605027
v 0.163500 0.000000 -0.558125
v 0.128740 0.000000 -0.506827
v 0.101000 0.000000 -0.452407
v 0.079969 0.000000 -0.396141
v 0.065333 0.000000 -0.339301
v 0.056781 0.000000 -0.283163
v 0.054000 0.000000 -0.229000
v 0.057857 0.000000 -0.163013
v 0.069273 0.000000 -0.101690
v 0.088016 0.000000 -0.045234
v 0.113852 0.000000 0.006148
v 0.146549 0.000000 0.052253
v 0.185875 0.000000 0.092875
v 0.231597 0.000000 0.127810
v 0.283481 0.000000 0.156852
v 0.341297 0.000000 0.179797
v 0.404810 0.000000 0.196440
v 0.473789 0.000000 0.206576
v 0.548000 0.000000 0.210000
v 0.597502 0.000000 0.208422
v 0.644519 0.000000 0.203708
v 0.689063 0.000000 0.195891
v 0.731148 0.000000 0.185000
v 0.770789 0.000000 0.171068
v 0.808000 0.000000 0.154125
v 0.842794 0.000000 0.134203
v 0.875185 0.000000 0.111333
v 0.905187 0.000000 0.085547
v 0.932815 0.000000 0.056875
v 0.958081 0.000000 0.025349
v 0.981000 0.000000 -0.009000
v 0.331000 0.000000 -0.213000
v 0.332683 0.000000 -0.244079
v 0.337546 0.000000 -0.274551
v 0.345313 0.000000 -0.304016
v 0.355704 0.000000 -0.332074
v 0.368442 0.000000 -0.358327
v 0.383250 0.000000 -0.382375
v 0.399850 0.000000 -0.403819
v 0.417963 0.000000 -0.422259
v 0.437313 0.000000 -0.437297
v 0.457620 0.000000 -0.448532
v 0.478609 0.000000 -0.455567
v 0.500000 0.000000 -0.458000
v 0.516718 0.000000 -0.456868
v 0.532329 0.000000 -0.453523
v 0.546766 0.000000 -0.448047
v 0.559963 0.000000 -0.440519
v 0.571855 0.000000 -0.431018
v 0.582375 0.000000 -0.419625
v 0.591458 0.000000 -0.406420
v 0.599037 0.000000 -0.391481
v 0.605047 0.000000 -0.374891
v 0.609421 0.000000 -0.356727
v 0.612094 0.000000 -0.337070
v 0.613000 0.000000 -0.316000
v 0.611238 0.000000 -0.285341
v 0.606153 0.000000 -0.255144
v 0.598047 0.000000 -0.225828
v 0.587222 0.000000 -0.197815
v 0.573981 0.000000 -0.171524
v 0.558625 0.000000 -0.147375
v 0.541457 0.000000 -0.125789
v 0.522778 0.000000 -0.107185
v 0.502891 0.000000 -0.091984
v 0.482097 0.000000 -0.080607
v 0.460700 0.000000 -0.073472
v 0.439000 0.000000 -0.071000
v 0.423431 0.000000 -0.072171
v 0.408778 0.000000 -0.075616
v 0.395125 0.000000 -0.081234
v 0.382556 0.000000 -0.088926
v 0.371153 0.000000 -0.098590
v 0.361000 0.000000 -0.110125
v 0.352181 0.000000 -0.123431
v 0.344778 0.000000 -0.138407
v 0.338875 0.000000 -0.154953
v 0.334556 0.000000 -0.172968
v 0.331903 0.000000 -0.192350
vn 0.000000 1.000000 0.000000
usemtl None
s off
f 161//1 159//1 160//1
f 161//1 158//1 159//1
f 162//1 158//1 161//1
f 162//1 157//1 158//1
f 163//1 157//1 162//1
f 163//1 156//1 157//1
f 164//1 156//1 163//1
f 164//1 37//1 156//1
f 37//1 155//1 156//1
f 164//1 36//1 37//1
f 38//1 155//1 37//1
f 39//1 155//1 38//1
f 164//1 35//1 36//1
f 39//1 154//1 155//1
f 40//1 154//1 39//1
f 165//1 35//1 164//1
f 165//1 34//1 35//1
f 41//1 154//1 40//1
f 165//1 33//1 34//1
f 41//1 153//1 154//1
f 42//1 153//1 41//1
f 166//1 33//1 165//1
f 166//1 32//1 33//1
f 43//1 153//1 42//1
f 43//1 152//1 153//1
f 166//1 31//1 32//1
f 44//1 152//1 43//1
f 167//1 31//1 166//1
f 44//1 151//1 152//1
f 45//1 151//1 44//1
f 167//1 30//1 31//1
f 89//1 87//1 88//1
f 89//1 86//1 87//1
f 89//1 85//1 86//1
f 90//1 85//1 89//1
f 90//1 84//1 85//1
f 90//1 83//1 84//1
f 91//1 83//1 90//1
f 76//1 74//1 75//1
f 76//1 73//1 74//1
f 91//1 82//1 83//1
f 46//1 151//1 45//1
f 168//1 30//1 167//1
f 91//1 81//1 82//1
f 92//1 81//1 91//1
f 46//1 150//1 151//1
f 168//1 29//1 30//1
f 92//1 80//1 81//1
f 92//1 79//1 80//1
f 93//1 79//1 92//1
f 93//1 78//1 79//1
f 47//1 150//1 46//1
f 93//1 209//1 78//1
f 209//1 77//1 78//1
f 94//1 208//1 93//1
f 208//1 209//1 93//1
f 210//1 77//1 209//1
f 211//1 77//1 210//1
f 94//1 207//1 208//1
f 168//1 28//1 29//1
f 212//1 77//1 211//1
f 47//1 149//1 150//1
f 212//1 76//1 77//1
f 169//1 28//1 168//1
f 94//1 206//1 207//1
f 213//1 76//1 212//1
f 214//1 76//1 213//1
f 214//1 215//1 76//1
f 215//1 216//1 76//1
f 216//1 217//1 76//1
f 217//1 218//1 76//1
f 218//1 73//1 76//1
f 94//1 205//1 206//1
f 48//1 149//1 47//1
f 95//1 205//1 94//1
f 95//1 204//1 205//1
f 169//1 27//1 28//1
f 95//1 203//1 204//1
f 96//1 203//1 95//1
f 48//1 148//1 149//1
f 170//1 27//1 169//1
f 49//1 148//1 48//1
f 96//1 202//1 203//1
f 219//1 73//1 218//1
f 97//1 202//1 96//1
f 97//1 201//1 202//1
f 220//1 73//1 219//1
f 170//1 26//1 27//1
f 50//1 148//1 49//1
f 50//1 147//1 148//1
f 171//1 26//1 170//1
f 221//1 73//1 220//1
f 98//1 201//1 97//1
f 98//1 200//1 201//1
f 222//1 73//1 221//1
f 51//1 147//1 50//1
f 98//1 199//1 200//1
f 51//1 146//1 147//1
f 99//1 199//1 98//1
f 171//1 25//1 26//1
f 223//1 73//1 222//1
f 172//1 25//1 171//1
f 99//1 198//1 199//1
f 52//1 146//1 51//1
f 52//1 145//1 146//1
f 100//1 198//1 99//1
f 224//1 73//1 223//1
f 100//1 197//1 198//1
f 172//1 24//1 25//1
f 53//1 145//1 52//1
f 173//1 24//1 172//1
f 225//1 73//1 224//1
f 101//1 197//1 100//1
f 53//1 144//1 145//1
f 101//1 244//1 197//1
f 54//1 144//1 53//1
f 226//1 73//1 225//1
f 101//1 243//1 244//1
f 102//1 243//1 101//1
f 173//1 23//1 24//1
f 54//1 143//1 144//1
f 102//1 242//1 243//1
f 227//1 73//1 226//1
f 55//1 143//1 54//1
f 174//1 23//1 173//1
f 103//1 242//1 102//1
f 103//1 241//1 242//1
f 228//1 73//1 227//1
f 56//1 143//1 55//1
f 56//1 142//1 143//1
f 103//1 240//1 241//1
f 228//1 72//1 73//1
f 104//1 240//1 103//1
f 228//1 71//1 72//1
f 174//1 22//1 23//1
f 229//1 71//1 228//1
f 57//1 142//1 56//1
f 104//1 239//1 240//1
f 229//1 70//1 71//1
f 229//1 69//1 70//1
f 104//1 238//1 239//1
f 58//1 142//1 57//1
f 230//1 69//1 229//1
f 230//1 68//1 69//1
f 58//1 141//1 142//1
f 105//1 238//1 104//1
f 175//1 22//1 174//1
f 230//1 67//1 68//1
f 105//1 237//1 238//1
f 59//1 141//1 58//1
f 230//1 66//1 67//1
f 231//1 66//1 230//1
f 231//1 65//1 66//1
f 105//1 236//1 237//1
f 231//1 64//1 65//1
f 60//1 141//1 59//1
f 106//1 236//1 105//1
f 231//1 63//1 64//1
f 106//1 235//1 236//1
f 232//1 124//1 231//1
f 124//1 63//1 231//1
f 232//1 123//1 124//1
f 125//1 63//1 124//1
f 125//1 62//1 63//1
f 61//1 141//1 60//1
f 125//1 61//1 62//1
f 175//1 21//1 22//1
f 125//1 141//1 61//1
f 106//1 234//1 235//1
f 125//1 140//1 141//1
f 233//1 123//1 232//1
f 106//1 233//1 234//1
f 106//1 123//1 233//1
f 106//1 122//1 123//1
f 126//1 140//1 125//1
f 107//1 122//1 106//1
f 107//1 121//1 122//1
f 127//1 140//1 126//1
f 127//1 139//1 140//1
f 107//1 120//1 121//1
f 176//1 21//1 175//1
f 128//1 139//1 127//1
f 108//1 120//1 107//1
f 108//1 119//1 120//1
f 176//1 20//1 21//1
f 129//1 139//1 128//1
f 109//1 119//1 108//1
f 109//1 118//1 119//1
f 129//1 138//1 139//1
f 130//1 138//1 129//1
f 109//1 117//1 118//1
f 131//1 138//1 130//1
f 110//1 117//1 109//1
f 110//1 116//1 117//1
f 132//1 138//1 131//1
f 132//1 137//1 138//1
f 2//1 196//1 1//1
f 2//1 195//1 196//1
f 110//1 115//1 116//1
f 133//1 137//1 132//1
f 111//1 115//1 110//1
f 111//1 114//1 115//1
f 134//1 137//1 133//1
f 134//1 136//1 137//1
f 111//1 113//1 114//1
f 112//1 113//1 111//1
f 135//1 136//1 134//1
f 176//1 19//1 20//1
f 177//1 19//1 176//1
f 3//1 195//1 2//1
f 3//1 194//1 195//1
f 4//1 194//1 3//1
f 177//1 18//1 19//1
f 5//1 194//1 4//1
f 178//1 18//1 177//1
f 5//1 193//1 194//1
f 6//1 193//1 5//1
f 178//1 17//1 18//1
f 7//1 193//1 6//1
f 7//1 192//1 193//1
f 179//1 17//1 178//1
f 179//1 16//1 17//1
f 8//1 192//1 7//1
f 9//1 192//1 8//1
f 9//1 191//1 192//1
f 179//1 15//1 16//1
f 10//1 191//1 9//1
f 179//1 14//1 15//1
f 11//1 191//1 10//1
f 180//1 14//1 179//1
f 12//1 191//1 11//1
f 12//1 190//1 191//1
f 180//1 13//1 14//1
f 13//1 190//1 12//1
f 180//1 190//1 13//1
f 180//1 189//1 190//1
f 181//1 189//1 180//1
f 181//1 188//1 189//1
f 182//1 188//1 181//1
f 182//1 187//1 188//1
f 182//1 186//1 187//1
f 183//1 186//1 182//1
f 183//1 185//1 186//1
f 184//1 185//1 183//1
