# Blender v2.76 (sub 0) OBJ File: 'alphabet.blend'
# www.blender.org
mtllib A.mtl
o A_Mesh.057
v 0.362000 0.000000 -0.686000
v 0.293000 0.000000 -0.686000
v 0.000000 0.000000 0.000000
v 0.100000 0.000000 0.000000
v 0.186000 0.000000 -0.201000
v 0.476000 0.000000 -0.201000
v 0.567000 0.000000 0.000000
v 0.667000 0.000000 0.000000
v 0.326000 0.000000 -0.536000
v 0.436000 0.000000 -0.289000
v 0.224000 0.000000 -0.289000
vn 0.000000 1.000000 0.000000
usemtl None
s off
f 3//1 1//1 2//1
f 3//1 9//1 1//1
f 9//1 8//1 1//1
f 3//1 11//1 9//1
f 10//1 8//1 9//1
f 3//1 5//1 11//1
f 5//1 10//1 11//1
f 5//1 6//1 10//1
f 6//1 8//1 10//1
f 3//1 4//1 5//1
f 7//1 8//1 6//1
