# Blender v2.76 (sub 0) OBJ File: 'alphabet.blend'
# www.blender.org
mtllib C.mtl
o C_Mesh.055
v 0.656000 0.000000 -0.635000
v 0.633196 0.000000 -0.644295
v 0.611236 0.000000 -0.652690
v 0.590047 0.000000 -0.660203
v 0.569556 0.000000 -0.666852
v 0.549689 0.000000 -0.672653
v 0.530375 0.000000 -0.677625
v 0.511540 0.000000 -0.681784
v 0.493111 0.000000 -0.685148
v 0.475016 0.000000 -0.687734
v 0.457181 0.000000 -0.689560
v 0.439533 0.000000 -0.690643
v 0.422000 0.000000 -0.691000
v 0.369056 0.000000 -0.687889
v 0.318949 0.000000 -0.678778
v 0.272016 0.000000 -0.664000
v 0.228593 0.000000 -0.643889
v 0.189017 0.000000 -0.618778
v 0.153625 0.000000 -0.589000
v 0.122754 0.000000 -0.554889
v 0.096741 0.000000 -0.516778
v 0.075922 0.000000 -0.475000
v 0.060634 0.000000 -0.429889
v 0.051215 0.000000 -0.381778
v 0.048000 0.000000 -0.331000
v 0.050352 0.000000 -0.294270
v 0.057481 0.000000 -0.256162
v 0.069500 0.000000 -0.217547
v 0.086519 0.000000 -0.179296
v 0.108648 0.000000 -0.142282
v 0.136000 0.000000 -0.107375
v 0.168685 0.000000 -0.075447
v 0.206815 0.000000 -0.047370
v 0.250500 0.000000 -0.024016
v 0.299852 0.000000 -0.006255
v 0.354981 0.000000 0.005041
v 0.416000 0.000000 0.009000
v 0.442058 0.000000 0.008488
v 0.466796 0.000000 0.006986
v 0.490313 0.000000 0.004547
v 0.512704 0.000000 0.001222
v 0.534067 0.000000 -0.002936
v 0.554500 0.000000 -0.007875
v 0.574100 0.000000 -0.013543
v 0.592963 0.000000 -0.019889
v 0.611188 0.000000 -0.026859
v 0.628870 0.000000 -0.034403
v 0.646109 0.000000 -0.042467
v 0.663000 0.000000 -0.051000
v 0.663000 0.000000 -0.158000
v 0.643612 0.000000 -0.145981
v 0.623982 0.000000 -0.134935
v 0.604156 0.000000 -0.124875
v 0.584185 0.000000 -0.115815
v 0.564117 0.000000 -0.107769
v 0.544000 0.000000 -0.100750
v 0.523883 0.000000 -0.094773
v 0.503815 0.000000 -0.089852
v 0.483844 0.000000 -0.086000
v 0.464019 0.000000 -0.083232
v 0.444388 0.000000 -0.081560
v 0.425000 0.000000 -0.081000
v 0.385118 0.000000 -0.083174
v 0.347611 0.000000 -0.089560
v 0.312688 0.000000 -0.099953
v 0.280556 0.000000 -0.114148
v 0.251424 0.000000 -0.131940
v 0.225500 0.000000 -0.153125
v 0.202993 0.000000 -0.177497
v 0.184111 0.000000 -0.204852
v 0.169063 0.000000 -0.234984
v 0.158056 0.000000 -0.267690
v 0.151299 0.000000 -0.302763
v 0.149000 0.000000 -0.340000
v 0.151373 0.000000 -0.376646
v 0.158315 0.000000 -0.411417
v 0.169563 0.000000 -0.444063
v 0.184852 0.000000 -0.474333
v 0.203919 0.000000 -0.501979
v 0.226500 0.000000 -0.526750
v 0.252331 0.000000 -0.548396
v 0.281148 0.000000 -0.566667
v 0.312688 0.000000 -0.581313
v 0.346685 0.000000 -0.592083
v 0.382877 0.000000 -0.598729
v 0.421000 0.000000 -0.601000
v 0.440615 0.000000 -0.600539
v 0.460005 0.000000 -0.599144
v 0.479234 0.000000 -0.596797
v 0.498370 0.000000 -0.593482
v 0.517479 0.000000 -0.589180
v 0.536625 0.000000 -0.583875
v 0.555876 0.000000 -0.577549
v 0.575296 0.000000 -0.570185
v 0.594953 0.000000 -0.561766
v 0.614912 0.000000 -0.552273
v 0.635239 0.000000 -0.541691
v 0.656000 0.000000 -0.530000
vn 0.000000 1.000000 0.000000
usemtl None
s off
f 14//1 12//1 13//1
f 14//1 11//1 12//1
f 14//1 10//1 11//1
f 15//1 10//1 14//1
f 15//1 9//1 10//1
f 15//1 8//1 9//1
f 15//1 7//1 8//1
f 16//1 7//1 15//1
f 16//1 6//1 7//1
f 16//1 5//1 6//1
f 16//1 4//1 5//1
f 17//1 4//1 16//1
f 17//1 3//1 4//1
f 17//1 2//1 3//1
f 17//1 1//1 2//1
f 18//1 1//1 17//1
f 18//1 88//1 1//1
f 88//1 89//1 1//1
f 89//1 90//1 1//1
f 90//1 91//1 1//1
f 91//1 92//1 1//1
f 92//1 93//1 1//1
f 93//1 94//1 1//1
f 94//1 95//1 1//1
f 95//1 96//1 1//1
f 96//1 97//1 1//1
f 97//1 98//1 1//1
f 19//1 86//1 18//1
f 86//1 87//1 18//1
f 87//1 88//1 18//1
f 19//1 85//1 86//1
f 19//1 84//1 85//1
f 19//1 83//1 84//1
f 20//1 83//1 19//1
f 20//1 82//1 83//1
f 20//1 81//1 82//1
f 21//1 81//1 20//1
f 21//1 80//1 81//1
f 21//1 79//1 80//1
f 22//1 79//1 21//1
f 22//1 78//1 79//1
f 23//1 78//1 22//1
f 23//1 77//1 78//1
f 23//1 76//1 77//1
f 24//1 76//1 23//1
f 24//1 75//1 76//1
f 25//1 75//1 24//1
f 25//1 74//1 75//1
f 25//1 73//1 74//1
f 26//1 73//1 25//1
f 26//1 72//1 73//1
f 27//1 72//1 26//1
f 27//1 71//1 72//1
f 28//1 71//1 27//1
f 28//1 70//1 71//1
f 29//1 70//1 28//1
f 29//1 69//1 70//1
f 30//1 69//1 29//1
f 30//1 68//1 69//1
f 51//1 49//1 50//1
f 30//1 67//1 68//1
f 52//1 49//1 51//1
f 31//1 67//1 30//1
f 53//1 49//1 52//1
f 31//1 66//1 67//1
f 54//1 49//1 53//1
f 55//1 49//1 54//1
f 31//1 65//1 66//1
f 56//1 49//1 55//1
f 32//1 65//1 31//1
f 57//1 49//1 56//1
f 32//1 64//1 65//1
f 58//1 49//1 57//1
f 59//1 49//1 58//1
f 32//1 63//1 64//1
f 60//1 49//1 59//1
f 61//1 49//1 60//1
f 32//1 62//1 63//1
f 62//1 49//1 61//1
f 32//1 49//1 62//1
f 33//1 49//1 32//1
f 33//1 48//1 49//1
f 34//1 48//1 33//1
f 34//1 47//1 48//1
f 34//1 46//1 47//1
f 34//1 45//1 46//1
f 35//1 45//1 34//1
f 35//1 44//1 45//1
f 35//1 43//1 44//1
f 35//1 42//1 43//1
f 36//1 42//1 35//1
f 36//1 41//1 42//1
f 36//1 40//1 41//1
f 36//1 39//1 40//1
f 37//1 39//1 36//1
f 37//1 38//1 39//1
