# Blender v2.76 (sub 0) OBJ File: 'alphabet.blend'
# www.blender.org
mtllib q.mtl
o q_Mesh.067
v 0.354000 0.000000 0.230000
v 0.443000 0.000000 0.230000
v 0.443000 0.000000 -0.449000
v 0.279000 0.000000 -0.449000
v 0.230734 0.000000 -0.445889
v 0.189125 0.000000 -0.437111
v 0.153703 0.000000 -0.423500
v 0.124000 0.000000 -0.405889
v 0.099547 0.000000 -0.385111
v 0.079875 0.000000 -0.362000
v 0.064516 0.000000 -0.337389
v 0.053000 0.000000 -0.312111
v 0.044859 0.000000 -0.287000
v 0.039625 0.000000 -0.262889
v 0.036828 0.000000 -0.240611
v 0.036000 0.000000 -0.221000
v 0.037946 0.000000 -0.188115
v 0.043653 0.000000 -0.157088
v 0.052922 0.000000 -0.128109
v 0.065556 0.000000 -0.101370
v 0.081356 0.000000 -0.077062
v 0.100125 0.000000 -0.055375
v 0.121665 0.000000 -0.036501
v 0.145778 0.000000 -0.020630
v 0.172266 0.000000 -0.007953
v 0.200931 0.000000 0.001338
v 0.231575 0.000000 0.007053
v 0.264000 0.000000 0.009000
v 0.270392 0.000000 0.008876
v 0.277056 0.000000 0.008509
v 0.283969 0.000000 0.007906
v 0.291111 0.000000 0.007074
v 0.298462 0.000000 0.006020
v 0.306000 0.000000 0.004750
v 0.313705 0.000000 0.003272
v 0.321556 0.000000 0.001593
v 0.329531 0.000000 -0.000281
v 0.337611 0.000000 -0.002343
v 0.345774 0.000000 -0.004584
v 0.354000 0.000000 -0.007000
v 0.354000 0.000000 -0.369000
v 0.354000 0.000000 -0.086000
v 0.347210 0.000000 -0.082876
v 0.340347 0.000000 -0.080005
v 0.333422 0.000000 -0.077391
v 0.326444 0.000000 -0.075037
v 0.319425 0.000000 -0.072947
v 0.312375 0.000000 -0.071125
v 0.305304 0.000000 -0.069573
v 0.298222 0.000000 -0.068296
v 0.291141 0.000000 -0.067297
v 0.284069 0.000000 -0.066579
v 0.277019 0.000000 -0.066145
v 0.270000 0.000000 -0.066000
v 0.249751 0.000000 -0.067408
v 0.230588 0.000000 -0.071514
v 0.212641 0.000000 -0.078141
v 0.196037 0.000000 -0.087111
v 0.180906 0.000000 -0.098248
v 0.167375 0.000000 -0.111375
v 0.155573 0.000000 -0.126314
v 0.145630 0.000000 -0.142889
v 0.137672 0.000000 -0.160922
v 0.131829 0.000000 -0.180236
v 0.128229 0.000000 -0.200655
v 0.127000 0.000000 -0.222000
v 0.128517 0.000000 -0.246319
v 0.132884 0.000000 -0.268306
v 0.139828 0.000000 -0.288000
v 0.149074 0.000000 -0.305444
v 0.160348 0.000000 -0.320681
v 0.173375 0.000000 -0.333750
v 0.187881 0.000000 -0.344694
v 0.203593 0.000000 -0.353556
v 0.220234 0.000000 -0.360375
v 0.237532 0.000000 -0.365194
v 0.255212 0.000000 -0.368055
v 0.273000 0.000000 -0.369000
vn 0.000000 1.000000 0.000000
usemtl None
s off
f 5//1 3//1 4//1
f 5//1 41//1 3//1
f 41//1 2//1 3//1
f 6//1 41//1 5//1
f 7//1 41//1 6//1
f 8//1 41//1 7//1
f 9//1 41//1 8//1
f 10//1 78//1 9//1
f 78//1 41//1 9//1
f 10//1 77//1 78//1
f 42//1 2//1 41//1
f 10//1 76//1 77//1
f 10//1 75//1 76//1
f 11//1 75//1 10//1
f 11//1 74//1 75//1
f 11//1 73//1 74//1
f 11//1 72//1 73//1
f 12//1 72//1 11//1
f 12//1 71//1 72//1
f 12//1 70//1 71//1
f 13//1 70//1 12//1
f 13//1 69//1 70//1
f 13//1 68//1 69//1
f 14//1 68//1 13//1
f 14//1 67//1 68//1
f 15//1 67//1 14//1
f 15//1 66//1 67//1
f 16//1 66//1 15//1
f 16//1 65//1 66//1
f 17//1 65//1 16//1
f 17//1 64//1 65//1
f 18//1 64//1 17//1
f 18//1 63//1 64//1
f 18//1 62//1 63//1
f 19//1 62//1 18//1
f 19//1 61//1 62//1
f 20//1 61//1 19//1
f 20//1 60//1 61//1
f 20//1 59//1 60//1
f 21//1 59//1 20//1
f 21//1 58//1 59//1
f 21//1 57//1 58//1
f 43//1 2//1 42//1
f 44//1 2//1 43//1
f 45//1 2//1 44//1
f 21//1 56//1 57//1
f 46//1 40//1 45//1
f 40//1 2//1 45//1
f 22//1 56//1 21//1
f 47//1 40//1 46//1
f 48//1 40//1 47//1
f 22//1 55//1 56//1
f 49//1 40//1 48//1
f 50//1 40//1 49//1
f 51//1 40//1 50//1
f 22//1 54//1 55//1
f 52//1 40//1 51//1
f 53//1 40//1 52//1
f 54//1 40//1 53//1
f 22//1 40//1 54//1
f 23//1 40//1 22//1
f 24//1 40//1 23//1
f 25//1 40//1 24//1
f 26//1 40//1 25//1
f 26//1 39//1 40//1
f 1//1 2//1 40//1
f 26//1 38//1 39//1
f 26//1 37//1 38//1
f 26//1 36//1 37//1
f 27//1 36//1 26//1
f 27//1 35//1 36//1
f 27//1 34//1 35//1
f 27//1 33//1 34//1
f 27//1 32//1 33//1
f 28//1 32//1 27//1
f 28//1 31//1 32//1
f 28//1 30//1 31//1
f 28//1 29//1 30//1
