# Blender v2.76 (sub 0) OBJ File: 'alphabet.blend'
# www.blender.org
mtllib ".mtl
o "_Mesh.030
v 0.241000 0.000000 -0.462000
v 0.283000 0.000000 -0.462000
v 0.306000 0.000000 -0.599000
v 0.306000 0.000000 -0.716000
v 0.218000 0.000000 -0.716000
v 0.218000 0.000000 -0.599000
v 0.071000 0.000000 -0.462000
v 0.113000 0.000000 -0.462000
v 0.136000 0.000000 -0.599000
v 0.136000 0.000000 -0.716000
v 0.048000 0.000000 -0.716000
v 0.048000 0.000000 -0.599000
vn 0.000000 1.000000 0.000000
usemtl None
s off
f 12//1 10//1 11//1
f 12//1 9//1 10//1
f 7//1 9//1 12//1
f 7//1 8//1 9//1
f 6//1 4//1 5//1
f 6//1 3//1 4//1
f 1//1 3//1 6//1
f 1//1 2//1 3//1
