# Blender v2.76 (sub 0) OBJ File: 'alphabet.blend'
# www.blender.org
mtllib (.mtl
o (_Mesh.024
v 0.167000 0.000000 -0.232000
v 0.167981 0.000000 -0.276649
v 0.170931 0.000000 -0.320111
v 0.175859 0.000000 -0.362406
v 0.182778 0.000000 -0.403556
v 0.191696 0.000000 -0.443580
v 0.202625 0.000000 -0.482500
v 0.215575 0.000000 -0.520337
v 0.230556 0.000000 -0.557111
v 0.247578 0.000000 -0.592844
v 0.266653 0.000000 -0.627555
v 0.287790 0.000000 -0.661267
v 0.311000 0.000000 -0.694000
v 0.258000 0.000000 -0.694000
v 0.229185 0.000000 -0.663330
v 0.202310 0.000000 -0.630472
v 0.177484 0.000000 -0.595656
v 0.154815 0.000000 -0.559111
v 0.134409 0.000000 -0.521066
v 0.116375 0.000000 -0.481750
v 0.100820 0.000000 -0.441392
v 0.087852 0.000000 -0.400222
v 0.077578 0.000000 -0.358469
v 0.070107 0.000000 -0.316361
v 0.065545 0.000000 -0.274128
v 0.064000 0.000000 -0.232000
v 0.065545 0.000000 -0.189872
v 0.070106 0.000000 -0.147639
v 0.077578 0.000000 -0.105531
v 0.087852 0.000000 -0.063778
v 0.100820 0.000000 -0.022608
v 0.116375 0.000000 0.017750
v 0.134409 0.000000 0.057066
v 0.154815 0.000000 0.095111
v 0.177484 0.000000 0.131656
v 0.202310 0.000000 0.166472
v 0.229185 0.000000 0.199330
v 0.258000 0.000000 0.230000
v 0.311000 0.000000 0.230000
v 0.287790 0.000000 0.197267
v 0.266653 0.000000 0.163556
v 0.247578 0.000000 0.128844
v 0.230556 0.000000 0.093111
v 0.215575 0.000000 0.056337
v 0.202625 0.000000 0.018500
v 0.191696 0.000000 -0.020420
v 0.182778 0.000000 -0.060444
v 0.175859 0.000000 -0.101594
v 0.170931 0.000000 -0.143889
v 0.167981 0.000000 -0.187351
vn 0.000000 1.000000 0.000000
usemtl None
s off
f 15//1 13//1 14//1
f 15//1 12//1 13//1
f 16//1 12//1 15//1
f 16//1 11//1 12//1
f 17//1 11//1 16//1
f 17//1 10//1 11//1
f 18//1 10//1 17//1
f 18//1 9//1 10//1
f 19//1 9//1 18//1
f 19//1 8//1 9//1
f 20//1 8//1 19//1
f 20//1 7//1 8//1
f 20//1 6//1 7//1
f 21//1 6//1 20//1
f 21//1 5//1 6//1
f 22//1 5//1 21//1
f 22//1 4//1 5//1
f 23//1 4//1 22//1
f 23//1 3//1 4//1
f 24//1 3//1 23//1
f 24//1 2//1 3//1
f 25//1 2//1 24//1
f 25//1 1//1 2//1
f 26//1 1//1 25//1
f 27//1 1//1 26//1
f 27//1 50//1 1//1
f 28//1 50//1 27//1
f 28//1 49//1 50//1
f 29//1 49//1 28//1
f 29//1 48//1 49//1
f 30//1 48//1 29//1
f 30//1 47//1 48//1
f 31//1 47//1 30//1
f 31//1 46//1 47//1
f 32//1 46//1 31//1
f 32//1 45//1 46//1
f 33//1 45//1 32//1
f 33//1 44//1 45//1
f 33//1 43//1 44//1
f 34//1 43//1 33//1
f 34//1 42//1 43//1
f 35//1 42//1 34//1
f 35//1 41//1 42//1
f 36//1 41//1 35//1
f 36//1 40//1 41//1
f 37//1 40//1 36//1
f 37//1 39//1 40//1
f 38//1 39//1 37//1
