# Blender v2.76 (sub 0) OBJ File: 'alphabet.blend'
# www.blender.org
mtllib +.mtl
o +_Mesh.021
v 0.251000 0.000000 -0.589000
v 0.251000 0.000000 -0.394000
v 0.056000 0.000000 -0.394000
v 0.056000 0.000000 -0.312000
v 0.251000 0.000000 -0.312000
v 0.251000 0.000000 -0.117000
v 0.333000 0.000000 -0.117000
v 0.333000 0.000000 -0.312000
v 0.528000 0.000000 -0.312000
v 0.528000 0.000000 -0.394000
v 0.333000 0.000000 -0.394000
v 0.333000 0.000000 -0.589000
vn 0.000000 1.000000 0.000000
vn 0.000000 0.000000 1.000000
usemtl None
s off
f 2//1 12//1 1//1
f 2//1 11//1 12//1
f 4//1 2//1 3//1
f 4//1 11//1 2//1
f 4//1 10//1 11//1
f 4//1 9//1 10//1
f 5//2 9//2 4//2
f 6//1 8//1 5//1
f 8//2 9//2 5//2
f 6//1 7//1 8//1
