# Blender v2.76 (sub 0) OBJ File: 'alphabet.blend'
# www.blender.org
mtllib :.mtl
o :_Mesh.016
v 0.109000 0.000000 -0.458000
v 0.100887 0.000000 -0.457450
v 0.093097 0.000000 -0.455847
v 0.085703 0.000000 -0.453266
v 0.078778 0.000000 -0.449778
v 0.072394 0.000000 -0.445457
v 0.066625 0.000000 -0.440375
v 0.061543 0.000000 -0.434606
v 0.057222 0.000000 -0.428222
v 0.053734 0.000000 -0.421297
v 0.051153 0.000000 -0.413903
v 0.049550 0.000000 -0.406113
v 0.049000 0.000000 -0.398000
v 0.049550 0.000000 -0.389887
v 0.051153 0.000000 -0.382097
v 0.053734 0.000000 -0.374703
v 0.057222 0.000000 -0.367778
v 0.061543 0.000000 -0.361394
v 0.066625 0.000000 -0.355625
v 0.072394 0.000000 -0.350543
v 0.078778 0.000000 -0.346222
v 0.085703 0.000000 -0.342734
v 0.093097 0.000000 -0.340153
v 0.100887 0.000000 -0.338550
v 0.109000 0.000000 -0.338000
v 0.117113 0.000000 -0.338550
v 0.124903 0.000000 -0.340153
v 0.132297 0.000000 -0.342734
v 0.139222 0.000000 -0.346222
v 0.145606 0.000000 -0.350543
v 0.151375 0.000000 -0.355625
v 0.156457 0.000000 -0.361394
v 0.160778 0.000000 -0.367778
v 0.164266 0.000000 -0.374703
v 0.166847 0.000000 -0.382097
v 0.168450 0.000000 -0.389887
v 0.169000 0.000000 -0.398000
v 0.168450 0.000000 -0.406113
v 0.166847 0.000000 -0.413903
v 0.164266 0.000000 -0.421297
v 0.160778 0.000000 -0.428222
v 0.156457 0.000000 -0.434606
v 0.151375 0.000000 -0.440375
v 0.145606 0.000000 -0.445457
v 0.139222 0.000000 -0.449778
v 0.132297 0.000000 -0.453266
v 0.124903 0.000000 -0.455847
v 0.117113 0.000000 -0.457450
v 0.109000 0.000000 -0.111000
v 0.100887 0.000000 -0.110450
v 0.093097 0.000000 -0.108847
v 0.085703 0.000000 -0.106266
v 0.078778 0.000000 -0.102778
v 0.072394 0.000000 -0.098457
v 0.066625 0.000000 -0.093375
v 0.061543 0.000000 -0.087606
v 0.057222 0.000000 -0.081222
v 0.053734 0.000000 -0.074297
v 0.051153 0.000000 -0.066903
v 0.049550 0.000000 -0.059113
v 0.049000 0.000000 -0.051000
v 0.049550 0.000000 -0.042887
v 0.051153 0.000000 -0.035097
v 0.053734 0.000000 -0.027703
v 0.057222 0.000000 -0.020778
v 0.061543 0.000000 -0.014394
v 0.066625 0.000000 -0.008625
v 0.072394 0.000000 -0.003543
v 0.078778 0.000000 0.000778
v 0.085703 0.000000 0.004266
v 0.093097 0.000000 0.006847
v 0.100887 0.000000 0.008450
v 0.109000 0.000000 0.009000
v 0.117113 0.000000 0.008450
v 0.124903 0.000000 0.006847
v 0.132297 0.000000 0.004266
v 0.139222 0.000000 0.000778
v 0.145606 0.000000 -0.003543
v 0.151375 0.000000 -0.008625
v 0.156457 0.000000 -0.014394
v 0.160778 0.000000 -0.020778
v 0.164266 0.000000 -0.027703
v 0.166847 0.000000 -0.035097
v 0.168450 0.000000 -0.042887
v 0.169000 0.000000 -0.051000
v 0.168450 0.000000 -0.059113
v 0.166847 0.000000 -0.066903
v 0.164266 0.000000 -0.074297
v 0.160778 0.000000 -0.081222
v 0.156457 0.000000 -0.087606
v 0.151375 0.000000 -0.093375
v 0.145606 0.000000 -0.098457
v 0.139222 0.000000 -0.102778
v 0.132297 0.000000 -0.106266
v 0.124903 0.000000 -0.108847
v 0.117113 0.000000 -0.110450
vn 0.000000 1.000000 0.000000
usemtl None
s off
f 50//1 96//1 49//1
f 51//1 96//1 50//1
f 51//1 95//1 96//1
f 52//1 95//1 51//1
f 52//1 94//1 95//1
f 53//1 94//1 52//1
f 53//1 93//1 94//1
f 54//1 93//1 53//1
f 54//1 92//1 93//1
f 55//1 92//1 54//1
f 55//1 91//1 92//1
f 56//1 91//1 55//1
f 56//1 90//1 91//1
f 57//1 90//1 56//1
f 57//1 89//1 90//1
f 58//1 89//1 57//1
f 58//1 88//1 89//1
f 59//1 88//1 58//1
f 59//1 87//1 88//1
f 60//1 87//1 59//1
f 60//1 86//1 87//1
f 60//1 85//1 86//1
f 61//1 85//1 60//1
f 62//1 85//1 61//1
f 62//1 84//1 85//1
f 63//1 84//1 62//1
f 63//1 83//1 84//1
f 64//1 83//1 63//1
f 64//1 82//1 83//1
f 65//1 82//1 64//1
f 65//1 81//1 82//1
f 66//1 81//1 65//1
f 66//1 80//1 81//1
f 67//1 80//1 66//1
f 67//1 79//1 80//1
f 68//1 79//1 67//1
f 68//1 78//1 79//1
f 69//1 78//1 68//1
f 69//1 77//1 78//1
f 70//1 77//1 69//1
f 70//1 76//1 77//1
f 71//1 76//1 70//1
f 71//1 75//1 76//1
f 72//1 75//1 71//1
f 72//1 74//1 75//1
f 73//1 74//1 72//1
f 2//1 48//1 1//1
f 2//1 47//1 48//1
f 3//1 47//1 2//1
f 3//1 46//1 47//1
f 4//1 46//1 3//1
f 4//1 45//1 46//1
f 5//1 45//1 4//1
f 5//1 44//1 45//1
f 6//1 44//1 5//1
f 6//1 43//1 44//1
f 7//1 43//1 6//1
f 7//1 42//1 43//1
f 8//1 42//1 7//1
f 8//1 41//1 42//1
f 9//1 41//1 8//1
f 9//1 40//1 41//1
f 10//1 40//1 9//1
f 10//1 39//1 40//1
f 11//1 39//1 10//1
f 11//1 38//1 39//1
f 12//1 38//1 11//1
f 12//1 37//1 38//1
f 13//1 37//1 12//1
f 14//1 37//1 13//1
f 14//1 36//1 37//1
f 14//1 35//1 36//1
f 15//1 35//1 14//1
f 15//1 34//1 35//1
f 16//1 34//1 15//1
f 16//1 33//1 34//1
f 17//1 33//1 16//1
f 17//1 32//1 33//1
f 18//1 32//1 17//1
f 18//1 31//1 32//1
f 19//1 31//1 18//1
f 19//1 30//1 31//1
f 20//1 30//1 19//1
f 20//1 29//1 30//1
f 21//1 29//1 20//1
f 21//1 28//1 29//1
f 22//1 28//1 21//1
f 22//1 27//1 28//1
f 23//1 27//1 22//1
f 23//1 26//1 27//1
f 24//1 26//1 23//1
f 24//1 25//1 26//1
