# Blender v2.76 (sub 0) OBJ File: 'alphabet.blend'
# www.blender.org
mtllib ;.mtl
o ;_Mesh.015
v 0.169000 0.000000 -0.398000
v 0.168450 0.000000 -0.406113
v 0.166847 0.000000 -0.413903
v 0.164266 0.000000 -0.421297
v 0.160778 0.000000 -0.428222
v 0.156457 0.000000 -0.434606
v 0.151375 0.000000 -0.440375
v 0.145606 0.000000 -0.445457
v 0.139222 0.000000 -0.449778
v 0.132297 0.000000 -0.453266
v 0.124903 0.000000 -0.455847
v 0.117113 0.000000 -0.457450
v 0.109000 0.000000 -0.458000
v 0.100887 0.000000 -0.457450
v 0.093097 0.000000 -0.455847
v 0.085703 0.000000 -0.453266
v 0.078778 0.000000 -0.449778
v 0.072394 0.000000 -0.445457
v 0.066625 0.000000 -0.440375
v 0.061543 0.000000 -0.434606
v 0.057222 0.000000 -0.428222
v 0.053734 0.000000 -0.421297
v 0.051153 0.000000 -0.413903
v 0.049550 0.000000 -0.406113
v 0.049000 0.000000 -0.398000
v 0.049550 0.000000 -0.389887
v 0.051153 0.000000 -0.382097
v 0.053734 0.000000 -0.374703
v 0.057222 0.000000 -0.367778
v 0.061543 0.000000 -0.361394
v 0.066625 0.000000 -0.355625
v 0.072394 0.000000 -0.350543
v 0.078778 0.000000 -0.346222
v 0.085703 0.000000 -0.342734
v 0.093097 0.000000 -0.340153
v 0.100887 0.000000 -0.338550
v 0.109000 0.000000 -0.338000
v 0.117113 0.000000 -0.338550
v 0.124903 0.000000 -0.340153
v 0.132297 0.000000 -0.342734
v 0.139222 0.000000 -0.346222
v 0.145606 0.000000 -0.350543
v 0.151375 0.000000 -0.355625
v 0.156457 0.000000 -0.361394
v 0.160778 0.000000 -0.367778
v 0.164266 0.000000 -0.374703
v 0.166847 0.000000 -0.382097
v 0.168450 0.000000 -0.389887
v 0.061000 0.000000 0.115000
v 0.078788 0.000000 0.108781
v 0.095139 0.000000 0.101167
v 0.110031 0.000000 0.092219
v 0.123444 0.000000 0.082000
v 0.135358 0.000000 0.070573
v 0.145750 0.000000 0.058000
v 0.154601 0.000000 0.044344
v 0.161889 0.000000 0.029667
v 0.167594 0.000000 0.014031
v 0.171694 0.000000 -0.002500
v 0.174170 0.000000 -0.019865
v 0.175000 0.000000 -0.038000
v 0.174465 0.000000 -0.050543
v 0.172884 0.000000 -0.062597
v 0.170297 0.000000 -0.074047
v 0.166741 0.000000 -0.084778
v 0.162254 0.000000 -0.094675
v 0.156875 0.000000 -0.103625
v 0.150642 0.000000 -0.111512
v 0.143593 0.000000 -0.118222
v 0.135766 0.000000 -0.123641
v 0.127199 0.000000 -0.127653
v 0.117931 0.000000 -0.130144
v 0.108000 0.000000 -0.131000
v 0.099677 0.000000 -0.130564
v 0.091750 0.000000 -0.129259
v 0.084281 0.000000 -0.127094
v 0.077333 0.000000 -0.124074
v 0.070969 0.000000 -0.120207
v 0.065250 0.000000 -0.115500
v 0.060240 0.000000 -0.109959
v 0.056000 0.000000 -0.103593
v 0.052594 0.000000 -0.096406
v 0.050083 0.000000 -0.088407
v 0.048531 0.000000 -0.079603
v 0.048000 0.000000 -0.070000
v 0.048432 0.000000 -0.062193
v 0.049704 0.000000 -0.054796
v 0.051781 0.000000 -0.047844
v 0.054630 0.000000 -0.041370
v 0.058214 0.000000 -0.035411
v 0.062500 0.000000 -0.030000
v 0.067453 0.000000 -0.025172
v 0.073037 0.000000 -0.020963
v 0.079219 0.000000 -0.017406
v 0.085963 0.000000 -0.014537
v 0.093235 0.000000 -0.012390
v 0.101000 0.000000 -0.011000
v 0.101416 0.000000 -0.001160
v 0.101579 0.000000 0.008384
v 0.101359 0.000000 0.017672
v 0.100630 0.000000 0.026741
v 0.099261 0.000000 0.035629
v 0.097125 0.000000 0.044375
v 0.094093 0.000000 0.053017
v 0.090037 0.000000 0.061593
v 0.084828 0.000000 0.070141
v 0.078338 0.000000 0.078699
v 0.070438 0.000000 0.087306
v 0.061000 0.000000 0.096000
vn 0.000000 1.000000 0.000000
usemtl None
s off
f 74//1 72//1 73//1
f 75//1 72//1 74//1
f 75//1 71//1 72//1
f 76//1 71//1 75//1
f 76//1 70//1 71//1
f 77//1 70//1 76//1
f 78//1 70//1 77//1
f 78//1 69//1 70//1
f 79//1 69//1 78//1
f 79//1 68//1 69//1
f 80//1 68//1 79//1
f 80//1 67//1 68//1
f 81//1 67//1 80//1
f 81//1 66//1 67//1
f 82//1 66//1 81//1
f 83//1 66//1 82//1
f 83//1 65//1 66//1
f 84//1 65//1 83//1
f 84//1 64//1 65//1
f 85//1 64//1 84//1
f 85//1 63//1 64//1
f 86//1 63//1 85//1
f 86//1 62//1 63//1
f 87//1 62//1 86//1
f 88//1 62//1 87//1
f 88//1 61//1 62//1
f 89//1 61//1 88//1
f 90//1 61//1 89//1
f 90//1 60//1 61//1
f 91//1 60//1 90//1
f 92//1 60//1 91//1
f 93//1 60//1 92//1
f 94//1 60//1 93//1
f 94//1 59//1 60//1
f 95//1 59//1 94//1
f 96//1 59//1 95//1
f 97//1 59//1 96//1
f 98//1 59//1 97//1
f 98//1 58//1 59//1
f 99//1 58//1 98//1
f 100//1 58//1 99//1
f 100//1 57//1 58//1
f 101//1 57//1 100//1
f 102//1 57//1 101//1
f 102//1 56//1 57//1
f 103//1 56//1 102//1
f 103//1 55//1 56//1
f 104//1 55//1 103//1
f 105//1 55//1 104//1
f 105//1 54//1 55//1
f 106//1 54//1 105//1
f 107//1 54//1 106//1
f 107//1 53//1 54//1
f 108//1 53//1 107//1
f 108//1 52//1 53//1
f 109//1 52//1 108//1
f 109//1 51//1 52//1
f 49//1 51//1 109//1
f 49//1 50//1 51//1
f 14//1 12//1 13//1
f 14//1 11//1 12//1
f 15//1 11//1 14//1
f 15//1 10//1 11//1
f 16//1 10//1 15//1
f 16//1 9//1 10//1
f 17//1 9//1 16//1
f 17//1 8//1 9//1
f 18//1 8//1 17//1
f 18//1 7//1 8//1
f 19//1 7//1 18//1
f 19//1 6//1 7//1
f 20//1 6//1 19//1
f 20//1 5//1 6//1
f 21//1 5//1 20//1
f 21//1 4//1 5//1
f 22//1 4//1 21//1
f 22//1 3//1 4//1
f 23//1 3//1 22//1
f 23//1 2//1 3//1
f 24//1 2//1 23//1
f 24//1 1//1 2//1
f 25//1 1//1 24//1
f 26//1 1//1 25//1
f 26//1 48//1 1//1
f 26//1 47//1 48//1
f 27//1 47//1 26//1
f 27//1 46//1 47//1
f 28//1 46//1 27//1
f 28//1 45//1 46//1
f 29//1 45//1 28//1
f 29//1 44//1 45//1
f 30//1 44//1 29//1
f 30//1 43//1 44//1
f 31//1 43//1 30//1
f 31//1 42//1 43//1
f 32//1 42//1 31//1
f 32//1 41//1 42//1
f 33//1 41//1 32//1
f 33//1 40//1 41//1
f 34//1 40//1 33//1
f 34//1 39//1 40//1
f 35//1 39//1 34//1
f 35//1 38//1 39//1
f 36//1 38//1 35//1
f 36//1 37//1 38//1
