# Blender v2.76 (sub 0) OBJ File: 'alphabet.blend'
# www.blender.org
mtllib ?.mtl
o ?_Mesh.011
v 0.154000 0.000000 -0.111000
v 0.145887 0.000000 -0.110450
v 0.138097 0.000000 -0.108847
v 0.130703 0.000000 -0.106266
v 0.123778 0.000000 -0.102778
v 0.117394 0.000000 -0.098457
v 0.111625 0.000000 -0.093375
v 0.106543 0.000000 -0.087606
v 0.102222 0.000000 -0.081222
v 0.098734 0.000000 -0.074297
v 0.096153 0.000000 -0.066903
v 0.094550 0.000000 -0.059113
v 0.094000 0.000000 -0.051000
v 0.094550 0.000000 -0.042887
v 0.096153 0.000000 -0.035097
v 0.098734 0.000000 -0.027703
v 0.102222 0.000000 -0.020778
v 0.106543 0.000000 -0.014394
v 0.111625 0.000000 -0.008625
v 0.117394 0.000000 -0.003543
v 0.123778 0.000000 0.000778
v 0.130703 0.000000 0.004266
v 0.138097 0.000000 0.006847
v 0.145887 0.000000 0.008450
v 0.154000 0.000000 0.009000
v 0.162113 0.000000 0.008450
v 0.169903 0.000000 0.006847
v 0.177297 0.000000 0.004266
v 0.184222 0.000000 0.000778
v 0.190606 0.000000 -0.003543
v 0.196375 0.000000 -0.008625
v 0.201457 0.000000 -0.014394
v 0.205778 0.000000 -0.020778
v 0.209266 0.000000 -0.027703
v 0.211847 0.000000 -0.035097
v 0.213450 0.000000 -0.042887
v 0.214000 0.000000 -0.051000
v 0.213450 0.000000 -0.059113
v 0.211847 0.000000 -0.066903
v 0.209266 0.000000 -0.074297
v 0.205778 0.000000 -0.081222
v 0.201457 0.000000 -0.087606
v 0.196375 0.000000 -0.093375
v 0.190606 0.000000 -0.098457
v 0.184222 0.000000 -0.102778
v 0.177297 0.000000 -0.106266
v 0.169903 0.000000 -0.108847
v 0.162113 0.000000 -0.110450
v 0.082000 0.000000 -0.595000
v 0.084795 0.000000 -0.595538
v 0.087690 0.000000 -0.596139
v 0.090703 0.000000 -0.596781
v 0.093852 0.000000 -0.597444
v 0.097153 0.000000 -0.598108
v 0.100625 0.000000 -0.598750
v 0.104284 0.000000 -0.599351
v 0.108148 0.000000 -0.599889
v 0.112234 0.000000 -0.600344
v 0.116560 0.000000 -0.600694
v 0.121143 0.000000 -0.600920
v 0.126000 0.000000 -0.601000
v 0.135701 0.000000 -0.600446
v 0.144778 0.000000 -0.598815
v 0.153187 0.000000 -0.596156
v 0.160889 0.000000 -0.592519
v 0.167840 0.000000 -0.587950
v 0.174000 0.000000 -0.582500
v 0.179326 0.000000 -0.576216
v 0.183778 0.000000 -0.569148
v 0.187312 0.000000 -0.561344
v 0.189889 0.000000 -0.552852
v 0.191465 0.000000 -0.543721
v 0.192000 0.000000 -0.534000
v 0.189796 0.000000 -0.511655
v 0.183704 0.000000 -0.489986
v 0.174500 0.000000 -0.468797
v 0.162963 0.000000 -0.447889
v 0.149870 0.000000 -0.427064
v 0.136000 0.000000 -0.406125
v 0.122130 0.000000 -0.384873
v 0.109037 0.000000 -0.363111
v 0.097500 0.000000 -0.340641
v 0.088296 0.000000 -0.317264
v 0.082204 0.000000 -0.292783
v 0.080000 0.000000 -0.267000
v 0.080359 0.000000 -0.256138
v 0.081454 0.000000 -0.246019
v 0.083313 0.000000 -0.236594
v 0.085963 0.000000 -0.227815
v 0.089433 0.000000 -0.219633
v 0.093750 0.000000 -0.212000
v 0.098942 0.000000 -0.204867
v 0.105037 0.000000 -0.198185
v 0.112063 0.000000 -0.191906
v 0.120046 0.000000 -0.185982
v 0.129016 0.000000 -0.180362
v 0.139000 0.000000 -0.175000
v 0.139030 0.000000 -0.201072
v 0.145324 0.000000 -0.227829
v 0.156688 0.000000 -0.255328
v 0.171926 0.000000 -0.283630
v 0.189845 0.000000 -0.312792
v 0.209250 0.000000 -0.342875
v 0.228947 0.000000 -0.373937
v 0.247741 0.000000 -0.406037
v 0.264438 0.000000 -0.439234
v 0.277843 0.000000 -0.473588
v 0.286762 0.000000 -0.509157
v 0.290000 0.000000 -0.546000
v 0.289086 0.000000 -0.562106
v 0.286269 0.000000 -0.578685
v 0.281438 0.000000 -0.595375
v 0.274482 0.000000 -0.611815
v 0.265289 0.000000 -0.627644
v 0.253750 0.000000 -0.642500
v 0.239752 0.000000 -0.656023
v 0.223185 0.000000 -0.667852
v 0.203938 0.000000 -0.677625
v 0.181898 0.000000 -0.684982
v 0.156956 0.000000 -0.689560
v 0.129000 0.000000 -0.691000
vn 0.000000 1.000000 0.000000
usemtl None
s off
f 49//1 120//1 121//1
f 49//1 119//1 120//1
f 49//1 118//1 119//1
f 49//1 117//1 118//1
f 49//1 116//1 117//1
f 49//1 115//1 116//1
f 49//1 53//1 115//1
f 53//1 54//1 115//1
f 54//1 55//1 115//1
f 55//1 114//1 115//1
f 55//1 56//1 114//1
f 56//1 57//1 114//1
f 57//1 58//1 114//1
f 58//1 59//1 114//1
f 59//1 113//1 114//1
f 59//1 60//1 113//1
f 60//1 61//1 113//1
f 61//1 112//1 113//1
f 62//1 112//1 61//1
f 63//1 112//1 62//1
f 64//1 112//1 63//1
f 49//1 52//1 53//1
f 49//1 51//1 52//1
f 65//1 112//1 64//1
f 49//1 50//1 51//1
f 65//1 111//1 112//1
f 66//1 111//1 65//1
f 67//1 111//1 66//1
f 68//1 111//1 67//1
f 68//1 110//1 111//1
f 69//1 110//1 68//1
f 70//1 110//1 69//1
f 70//1 109//1 110//1
f 71//1 109//1 70//1
f 72//1 109//1 71//1
f 72//1 108//1 109//1
f 73//1 108//1 72//1
f 74//1 108//1 73//1
f 75//1 108//1 74//1
f 75//1 107//1 108//1
f 76//1 107//1 75//1
f 76//1 106//1 107//1
f 77//1 106//1 76//1
f 78//1 106//1 77//1
f 78//1 105//1 106//1
f 79//1 105//1 78//1
f 80//1 105//1 79//1
f 80//1 104//1 105//1
f 81//1 104//1 80//1
f 81//1 103//1 104//1
f 82//1 103//1 81//1
f 82//1 102//1 103//1
f 83//1 102//1 82//1
f 84//1 102//1 83//1
f 84//1 101//1 102//1
f 85//1 101//1 84//1
f 85//1 100//1 101//1
f 86//1 100//1 85//1
f 87//1 100//1 86//1
f 87//1 99//1 100//1
f 88//1 99//1 87//1
f 89//1 99//1 88//1
f 89//1 98//1 99//1
f 90//1 98//1 89//1
f 91//1 98//1 90//1
f 92//1 98//1 91//1
f 93//1 98//1 92//1
f 93//1 97//1 98//1
f 94//1 97//1 93//1
f 95//1 97//1 94//1
f 96//1 97//1 95//1
f 2//1 48//1 1//1
f 3//1 48//1 2//1
f 3//1 47//1 48//1
f 4//1 47//1 3//1
f 4//1 46//1 47//1
f 5//1 46//1 4//1
f 5//1 45//1 46//1
f 6//1 45//1 5//1
f 6//1 44//1 45//1
f 7//1 44//1 6//1
f 7//1 43//1 44//1
f 8//1 43//1 7//1
f 8//1 42//1 43//1
f 9//1 42//1 8//1
f 9//1 41//1 42//1
f 10//1 41//1 9//1
f 10//1 40//1 41//1
f 11//1 40//1 10//1
f 11//1 39//1 40//1
f 12//1 39//1 11//1
f 12//1 38//1 39//1
f 12//1 37//1 38//1
f 13//1 37//1 12//1
f 14//1 37//1 13//1
f 14//1 36//1 37//1
f 15//1 36//1 14//1
f 15//1 35//1 36//1
f 16//1 35//1 15//1
f 16//1 34//1 35//1
f 17//1 34//1 16//1
f 17//1 33//1 34//1
f 18//1 33//1 17//1
f 18//1 32//1 33//1
f 19//1 32//1 18//1
f 19//1 31//1 32//1
f 20//1 31//1 19//1
f 20//1 30//1 31//1
f 21//1 30//1 20//1
f 21//1 29//1 30//1
f 22//1 29//1 21//1
f 22//1 28//1 29//1
f 23//1 28//1 22//1
f 23//1 27//1 28//1
f 24//1 27//1 23//1
f 24//1 26//1 27//1
f 25//1 26//1 24//1
