# Blender v2.76 (sub 0) OBJ File: 'alphabet.blend'
# www.blender.org
mtllib B.mtl
o B_Mesh.056
v 0.075000 0.000000 0.000000
v 0.309000 0.000000 0.000000
v 0.349526 0.000000 -0.001977
v 0.385708 0.000000 -0.007648
v 0.417703 0.000000 -0.016625
v 0.445667 0.000000 -0.028519
v 0.469755 0.000000 -0.042940
v 0.490125 0.000000 -0.059500
v 0.506932 0.000000 -0.077810
v 0.520333 0.000000 -0.097481
v 0.530484 0.000000 -0.118125
v 0.537542 0.000000 -0.139352
v 0.541662 0.000000 -0.160773
v 0.543000 0.000000 -0.182000
v 0.541721 0.000000 -0.204466
v 0.537935 0.000000 -0.225810
v 0.531719 0.000000 -0.245953
v 0.523148 0.000000 -0.264815
v 0.512300 0.000000 -0.282315
v 0.499250 0.000000 -0.298375
v 0.484075 0.000000 -0.312914
v 0.466852 0.000000 -0.325852
v 0.447656 0.000000 -0.337109
v 0.426565 0.000000 -0.346606
v 0.403654 0.000000 -0.354263
v 0.379000 0.000000 -0.360000
v 0.379000 0.000000 -0.362000
v 0.395961 0.000000 -0.369609
v 0.411356 0.000000 -0.377954
v 0.425203 0.000000 -0.387063
v 0.437519 0.000000 -0.396963
v 0.448320 0.000000 -0.407683
v 0.457625 0.000000 -0.419250
v 0.465451 0.000000 -0.431692
v 0.471815 0.000000 -0.445037
v 0.476734 0.000000 -0.459312
v 0.480227 0.000000 -0.474546
v 0.482310 0.000000 -0.490766
v 0.483000 0.000000 -0.508000
v 0.481675 0.000000 -0.529490
v 0.477653 0.000000 -0.550750
v 0.470859 0.000000 -0.571469
v 0.461222 0.000000 -0.591333
v 0.448668 0.000000 -0.610031
v 0.433125 0.000000 -0.627250
v 0.414519 0.000000 -0.642677
v 0.392778 0.000000 -0.656000
v 0.367828 0.000000 -0.666906
v 0.339597 0.000000 -0.675083
v 0.308012 0.000000 -0.680219
v 0.273000 0.000000 -0.682000
v 0.075000 0.000000 -0.682000
v 0.173000 0.000000 -0.594000
v 0.263000 0.000000 -0.594000
v 0.284248 0.000000 -0.593105
v 0.303065 0.000000 -0.590505
v 0.319563 0.000000 -0.586328
v 0.333852 0.000000 -0.580704
v 0.346044 0.000000 -0.573760
v 0.356250 0.000000 -0.565625
v 0.364581 0.000000 -0.556428
v 0.371148 0.000000 -0.546296
v 0.376063 0.000000 -0.535359
v 0.379435 0.000000 -0.523745
v 0.381377 0.000000 -0.511583
v 0.382000 0.000000 -0.499000
v 0.381019 0.000000 -0.481520
v 0.378069 0.000000 -0.465579
v 0.373141 0.000000 -0.451172
v 0.366222 0.000000 -0.438296
v 0.357304 0.000000 -0.426948
v 0.346375 0.000000 -0.417125
v 0.333425 0.000000 -0.408822
v 0.318444 0.000000 -0.402037
v 0.301422 0.000000 -0.396766
v 0.282347 0.000000 -0.393005
v 0.261210 0.000000 -0.390751
v 0.238000 0.000000 -0.390000
v 0.173000 0.000000 -0.390000
v 0.173000 0.000000 -0.302000
v 0.291000 0.000000 -0.302000
v 0.315608 0.000000 -0.301098
v 0.337949 0.000000 -0.298454
v 0.358047 0.000000 -0.294156
v 0.375926 0.000000 -0.288296
v 0.391611 0.000000 -0.280964
v 0.405125 0.000000 -0.272250
v 0.416494 0.000000 -0.262244
v 0.425741 0.000000 -0.251037
v 0.432891 0.000000 -0.238719
v 0.437968 0.000000 -0.225380
v 0.440996 0.000000 -0.211110
v 0.442000 0.000000 -0.196000
v 0.441324 0.000000 -0.183161
v 0.439171 0.000000 -0.170292
v 0.435359 0.000000 -0.157609
v 0.429704 0.000000 -0.145333
v 0.422020 0.000000 -0.133682
v 0.412125 0.000000 -0.122875
v 0.399834 0.000000 -0.113130
v 0.384963 0.000000 -0.104667
v 0.367328 0.000000 -0.097703
v 0.346745 0.000000 -0.092458
v 0.323031 0.000000 -0.089151
v 0.296000 0.000000 -0.088000
v 0.173000 0.000000 -0.088000
vn 0.000000 1.000000 0.000000
usemtl None
s off
f 1//1 53//1 52//1
f 53//1 51//1 52//1
f 53//1 50//1 51//1
f 53//1 49//1 50//1
f 53//1 48//1 49//1
f 53//1 47//1 48//1
f 53//1 46//1 47//1
f 53//1 45//1 46//1
f 53//1 44//1 45//1
f 53//1 54//1 44//1
f 54//1 43//1 44//1
f 1//1 79//1 53//1
f 55//1 43//1 54//1
f 56//1 43//1 55//1
f 56//1 42//1 43//1
f 57//1 42//1 56//1
f 58//1 42//1 57//1
f 59//1 42//1 58//1
f 60//1 42//1 59//1
f 60//1 41//1 42//1
f 61//1 41//1 60//1
f 62//1 41//1 61//1
f 62//1 40//1 41//1
f 63//1 40//1 62//1
f 64//1 40//1 63//1
f 64//1 39//1 40//1
f 65//1 39//1 64//1
f 66//1 39//1 65//1
f 66//1 38//1 39//1
f 67//1 38//1 66//1
f 67//1 37//1 38//1
f 68//1 37//1 67//1
f 68//1 36//1 37//1
f 69//1 36//1 68//1
f 69//1 35//1 36//1
f 70//1 35//1 69//1
f 70//1 34//1 35//1
f 71//1 34//1 70//1
f 71//1 33//1 34//1
f 72//1 33//1 71//1
f 72//1 32//1 33//1
f 73//1 32//1 72//1
f 74//1 32//1 73//1
f 74//1 31//1 32//1
f 75//1 31//1 74//1
f 75//1 30//1 31//1
f 76//1 30//1 75//1
f 77//1 30//1 76//1
f 78//1 30//1 77//1
f 1//1 80//1 79//1
f 80//1 78//1 79//1
f 80//1 30//1 78//1
f 80//1 29//1 30//1
f 80//1 28//1 29//1
f 80//1 27//1 28//1
f 80//1 26//1 27//1
f 80//1 25//1 26//1
f 80//1 24//1 25//1
f 80//1 23//1 24//1
f 80//1 22//1 23//1
f 80//1 21//1 22//1
f 80//1 81//1 21//1
f 81//1 20//1 21//1
f 1//1 106//1 80//1
f 82//1 20//1 81//1
f 83//1 20//1 82//1
f 84//1 20//1 83//1
f 84//1 19//1 20//1
f 85//1 19//1 84//1
f 86//1 19//1 85//1
f 86//1 18//1 19//1
f 87//1 18//1 86//1
f 88//1 18//1 87//1
f 88//1 17//1 18//1
f 89//1 17//1 88//1
f 90//1 17//1 89//1
f 90//1 16//1 17//1
f 91//1 16//1 90//1
f 91//1 15//1 16//1
f 92//1 15//1 91//1
f 93//1 15//1 92//1
f 93//1 14//1 15//1
f 94//1 14//1 93//1
f 95//1 14//1 94//1
f 95//1 13//1 14//1
f 96//1 13//1 95//1
f 96//1 12//1 13//1
f 97//1 12//1 96//1
f 98//1 12//1 97//1
f 98//1 11//1 12//1
f 99//1 11//1 98//1
f 100//1 11//1 99//1
f 100//1 10//1 11//1
f 101//1 10//1 100//1
f 102//1 10//1 101//1
f 103//1 10//1 102//1
f 103//1 9//1 10//1
f 104//1 9//1 103//1
f 105//1 9//1 104//1
f 1//1 105//1 106//1
f 1//1 9//1 105//1
f 1//1 8//1 9//1
f 1//1 7//1 8//1
f 1//1 6//1 7//1
f 1//1 5//1 6//1
f 1//1 4//1 5//1
f 1//1 3//1 4//1
f 1//1 2//1 3//1
