# Blender v2.76 (sub 0) OBJ File: 'alphabet.blend'
# www.blender.org
mtllib e.mtl
o e_Mesh.079
v 0.438000 0.000000 -0.130000
v 0.425019 0.000000 -0.121795
v 0.412065 0.000000 -0.114194
v 0.399125 0.000000 -0.107219
v 0.386185 0.000000 -0.100889
v 0.373232 0.000000 -0.095226
v 0.360250 0.000000 -0.090250
v 0.347227 0.000000 -0.085983
v 0.334148 0.000000 -0.082444
v 0.321000 0.000000 -0.079656
v 0.307769 0.000000 -0.077639
v 0.294440 0.000000 -0.076413
v 0.281000 0.000000 -0.076000
v 0.260230 0.000000 -0.076957
v 0.240926 0.000000 -0.079819
v 0.223094 0.000000 -0.084578
v 0.206741 0.000000 -0.091222
v 0.191874 0.000000 -0.099741
v 0.178500 0.000000 -0.110125
v 0.166626 0.000000 -0.122363
v 0.156259 0.000000 -0.136444
v 0.147406 0.000000 -0.152359
v 0.140074 0.000000 -0.170097
v 0.134270 0.000000 -0.189648
v 0.130000 0.000000 -0.211000
v 0.446000 0.000000 -0.211000
v 0.444436 0.000000 -0.250731
v 0.439819 0.000000 -0.286935
v 0.432266 0.000000 -0.319625
v 0.421889 0.000000 -0.348815
v 0.408804 0.000000 -0.374519
v 0.393125 0.000000 -0.396750
v 0.374967 0.000000 -0.415523
v 0.354444 0.000000 -0.430852
v 0.331672 0.000000 -0.442750
v 0.306764 0.000000 -0.451232
v 0.279835 0.000000 -0.456310
v 0.251000 0.000000 -0.458000
v 0.220819 0.000000 -0.456111
v 0.192389 0.000000 -0.450556
v 0.165875 0.000000 -0.441500
v 0.141444 0.000000 -0.429111
v 0.119264 0.000000 -0.413556
v 0.099500 0.000000 -0.395000
v 0.082319 0.000000 -0.373611
v 0.067889 0.000000 -0.349556
v 0.056375 0.000000 -0.323000
v 0.047944 0.000000 -0.294111
v 0.042764 0.000000 -0.263056
v 0.041000 0.000000 -0.230000
v 0.042616 0.000000 -0.199249
v 0.047426 0.000000 -0.169241
v 0.055375 0.000000 -0.140344
v 0.066407 0.000000 -0.112926
v 0.080468 0.000000 -0.087355
v 0.097500 0.000000 -0.064000
v 0.117449 0.000000 -0.043228
v 0.140259 0.000000 -0.025407
v 0.165875 0.000000 -0.010906
v 0.194241 0.000000 -0.000093
v 0.225301 0.000000 0.006665
v 0.259000 0.000000 0.009000
v 0.277456 0.000000 0.008645
v 0.294898 0.000000 0.007574
v 0.311438 0.000000 0.005781
v 0.327185 0.000000 0.003259
v 0.342252 0.000000 0.000001
v 0.356750 0.000000 -0.004000
v 0.370789 0.000000 -0.008751
v 0.384482 0.000000 -0.014259
v 0.397938 0.000000 -0.020531
v 0.411269 0.000000 -0.027574
v 0.424586 0.000000 -0.035395
v 0.438000 0.000000 -0.044000
v 0.132000 0.000000 -0.270000
v 0.135603 0.000000 -0.287099
v 0.140407 0.000000 -0.302875
v 0.146406 0.000000 -0.317297
v 0.153593 0.000000 -0.330333
v 0.161959 0.000000 -0.341953
v 0.171500 0.000000 -0.352125
v 0.182207 0.000000 -0.360818
v 0.194074 0.000000 -0.368000
v 0.207094 0.000000 -0.373641
v 0.221259 0.000000 -0.377708
v 0.236564 0.000000 -0.380172
v 0.253000 0.000000 -0.381000
v 0.268243 0.000000 -0.380115
v 0.282444 0.000000 -0.377500
v 0.295563 0.000000 -0.373219
v 0.307556 0.000000 -0.367333
v 0.318382 0.000000 -0.359906
v 0.328000 0.000000 -0.351000
v 0.336368 0.000000 -0.340677
v 0.343444 0.000000 -0.329000
v 0.349187 0.000000 -0.316031
v 0.353556 0.000000 -0.301833
v 0.356507 0.000000 -0.286469
v 0.358000 0.000000 -0.270000
vn 0.000000 1.000000 0.000000
usemtl None
s off
f 39//1 37//1 38//1
f 39//1 36//1 37//1
f 40//1 36//1 39//1
f 40//1 35//1 36//1
f 41//1 35//1 40//1
f 41//1 34//1 35//1
f 42//1 34//1 41//1
f 42//1 33//1 34//1
f 43//1 33//1 42//1
f 43//1 32//1 33//1
f 44//1 32//1 43//1
f 44//1 31//1 32//1
f 45//1 87//1 44//1
f 87//1 31//1 44//1
f 45//1 86//1 87//1
f 88//1 31//1 87//1
f 45//1 85//1 86//1
f 89//1 31//1 88//1
f 45//1 84//1 85//1
f 90//1 31//1 89//1
f 90//1 30//1 31//1
f 45//1 83//1 84//1
f 46//1 83//1 45//1
f 91//1 30//1 90//1
f 46//1 82//1 83//1
f 92//1 30//1 91//1
f 46//1 81//1 82//1
f 93//1 30//1 92//1
f 46//1 80//1 81//1
f 94//1 30//1 93//1
f 47//1 80//1 46//1
f 94//1 29//1 30//1
f 47//1 79//1 80//1
f 95//1 29//1 94//1
f 47//1 78//1 79//1
f 96//1 29//1 95//1
f 48//1 78//1 47//1
f 96//1 28//1 29//1
f 48//1 77//1 78//1
f 97//1 28//1 96//1
f 48//1 76//1 77//1
f 98//1 28//1 97//1
f 49//1 76//1 48//1
f 49//1 75//1 76//1
f 98//1 27//1 28//1
f 99//1 27//1 98//1
f 49//1 99//1 75//1
f 49//1 27//1 99//1
f 50//1 27//1 49//1
f 50//1 26//1 27//1
f 51//1 25//1 50//1
f 25//1 26//1 50//1
f 51//1 24//1 25//1
f 52//1 24//1 51//1
f 52//1 23//1 24//1
f 52//1 22//1 23//1
f 53//1 22//1 52//1
f 53//1 21//1 22//1
f 54//1 21//1 53//1
f 54//1 20//1 21//1
f 2//1 74//1 1//1
f 54//1 19//1 20//1
f 3//1 74//1 2//1
f 4//1 74//1 3//1
f 55//1 19//1 54//1
f 55//1 18//1 19//1
f 5//1 74//1 4//1
f 6//1 74//1 5//1
f 55//1 17//1 18//1
f 7//1 74//1 6//1
f 55//1 16//1 17//1
f 8//1 74//1 7//1
f 56//1 16//1 55//1
f 9//1 74//1 8//1
f 56//1 15//1 16//1
f 10//1 74//1 9//1
f 56//1 14//1 15//1
f 11//1 74//1 10//1
f 12//1 74//1 11//1
f 56//1 13//1 14//1
f 13//1 74//1 12//1
f 56//1 74//1 13//1
f 57//1 74//1 56//1
f 57//1 73//1 74//1
f 58//1 73//1 57//1
f 58//1 72//1 73//1
f 58//1 71//1 72//1
f 59//1 71//1 58//1
f 59//1 70//1 71//1
f 59//1 69//1 70//1
f 60//1 69//1 59//1
f 60//1 68//1 69//1
f 60//1 67//1 68//1
f 61//1 67//1 60//1
f 61//1 66//1 67//1
f 61//1 65//1 66//1
f 61//1 64//1 65//1
f 62//1 64//1 61//1
f 62//1 63//1 64//1
