# Blender v2.76 (sub 0) OBJ File: 'alphabet.blend'
# www.blender.org
mtllib g.mtl
o g_Mesh.077
v 0.421000 0.000000 -0.449000
v 0.236000 0.000000 -0.449000
v 0.206725 0.000000 -0.447784
v 0.179468 0.000000 -0.444185
v 0.154328 0.000000 -0.438281
v 0.131407 0.000000 -0.430148
v 0.110806 0.000000 -0.419862
v 0.092625 0.000000 -0.407500
v 0.076965 0.000000 -0.393138
v 0.063926 0.000000 -0.376852
v 0.053609 0.000000 -0.358719
v 0.046116 0.000000 -0.338815
v 0.041546 0.000000 -0.317216
v 0.040000 0.000000 -0.294000
v 0.040167 0.000000 -0.285854
v 0.040667 0.000000 -0.277917
v 0.041500 0.000000 -0.270187
v 0.042667 0.000000 -0.262667
v 0.044167 0.000000 -0.255354
v 0.046000 0.000000 -0.248250
v 0.048167 0.000000 -0.241354
v 0.050667 0.000000 -0.234667
v 0.053500 0.000000 -0.228188
v 0.056667 0.000000 -0.221917
v 0.060167 0.000000 -0.215854
v 0.064000 0.000000 -0.210000
v 0.068417 0.000000 -0.204104
v 0.073167 0.000000 -0.198417
v 0.078250 0.000000 -0.192937
v 0.083667 0.000000 -0.187667
v 0.089417 0.000000 -0.182604
v 0.095500 0.000000 -0.177750
v 0.101917 0.000000 -0.173104
v 0.108667 0.000000 -0.168667
v 0.115750 0.000000 -0.164437
v 0.123167 0.000000 -0.160417
v 0.130917 0.000000 -0.156604
v 0.139000 0.000000 -0.153000
v 0.139000 0.000000 -0.151000
v 0.128570 0.000000 -0.148194
v 0.118810 0.000000 -0.144801
v 0.109766 0.000000 -0.140859
v 0.101481 0.000000 -0.136407
v 0.094003 0.000000 -0.131483
v 0.087375 0.000000 -0.126125
v 0.081643 0.000000 -0.120371
v 0.076852 0.000000 -0.114259
v 0.073047 0.000000 -0.107828
v 0.070273 0.000000 -0.101116
v 0.068576 0.000000 -0.094160
v 0.068000 0.000000 -0.087000
v 0.068293 0.000000 -0.082040
v 0.069181 0.000000 -0.077153
v 0.070672 0.000000 -0.072328
v 0.072778 0.000000 -0.067556
v 0.075509 0.000000 -0.062825
v 0.078875 0.000000 -0.058125
v 0.082887 0.000000 -0.053446
v 0.087556 0.000000 -0.048778
v 0.092891 0.000000 -0.044109
v 0.098903 0.000000 -0.039431
v 0.105602 0.000000 -0.034731
v 0.113000 0.000000 -0.030000
v 0.094391 0.000000 -0.024829
v 0.077546 0.000000 -0.018801
v 0.062438 0.000000 -0.011891
v 0.049037 0.000000 -0.004074
v 0.037317 0.000000 0.004673
v 0.027250 0.000000 0.014375
v 0.018808 0.000000 0.025056
v 0.011963 0.000000 0.036741
v 0.006687 0.000000 0.049453
v 0.002954 0.000000 0.063218
v 0.000734 0.000000 0.078058
v 0.000000 0.000000 0.094000
v 0.001762 0.000000 0.113271
v 0.006931 0.000000 0.131505
v 0.015328 0.000000 0.148578
v 0.026778 0.000000 0.164370
v 0.041102 0.000000 0.178760
v 0.058125 0.000000 0.191625
v 0.077668 0.000000 0.202844
v 0.099556 0.000000 0.212296
v 0.123609 0.000000 0.219859
v 0.149653 0.000000 0.225412
v 0.177509 0.000000 0.228833
v 0.207000 0.000000 0.230000
v 0.239111 0.000000 0.228886
v 0.268884 0.000000 0.225588
v 0.296234 0.000000 0.220172
v 0.321074 0.000000 0.212704
v 0.343317 0.000000 0.203249
v 0.362875 0.000000 0.191875
v 0.379663 0.000000 0.178646
v 0.393593 0.000000 0.163630
v 0.404578 0.000000 0.146891
v 0.412532 0.000000 0.128495
v 0.417369 0.000000 0.108510
v 0.419000 0.000000 0.087000
v 0.418276 0.000000 0.072929
v 0.416037 0.000000 0.059269
v 0.412188 0.000000 0.046094
v 0.406630 0.000000 0.033481
v 0.399266 0.000000 0.021508
v 0.390000 0.000000 0.010250
v 0.378734 0.000000 -0.000216
v 0.365370 0.000000 -0.009815
v 0.349813 0.000000 -0.018469
v 0.331963 0.000000 -0.026102
v 0.311725 0.000000 -0.032638
v 0.289000 0.000000 -0.038000
v 0.267398 0.000000 -0.042445
v 0.247602 0.000000 -0.046810
v 0.229625 0.000000 -0.051141
v 0.213481 0.000000 -0.055481
v 0.199185 0.000000 -0.059878
v 0.186750 0.000000 -0.064375
v 0.176190 0.000000 -0.069018
v 0.167519 0.000000 -0.073852
v 0.160750 0.000000 -0.078922
v 0.155898 0.000000 -0.084273
v 0.152977 0.000000 -0.089951
v 0.152000 0.000000 -0.096000
v 0.154435 0.000000 -0.107584
v 0.161315 0.000000 -0.116255
v 0.172000 0.000000 -0.122641
v 0.185852 0.000000 -0.127370
v 0.202231 0.000000 -0.131072
v 0.220500 0.000000 -0.134375
v 0.240019 0.000000 -0.137907
v 0.260148 0.000000 -0.142296
v 0.280250 0.000000 -0.148172
v 0.299685 0.000000 -0.156162
v 0.317815 0.000000 -0.166895
v 0.334000 0.000000 -0.181000
v 0.339238 0.000000 -0.186692
v 0.344403 0.000000 -0.193204
v 0.349422 0.000000 -0.200438
v 0.354222 0.000000 -0.208296
v 0.358731 0.000000 -0.216683
v 0.362875 0.000000 -0.225500
v 0.366582 0.000000 -0.234650
v 0.369778 0.000000 -0.244037
v 0.372391 0.000000 -0.253562
v 0.374347 0.000000 -0.263130
v 0.375575 0.000000 -0.272641
v 0.376000 0.000000 -0.282000
v 0.375744 0.000000 -0.291242
v 0.374949 0.000000 -0.300023
v 0.373578 0.000000 -0.308422
v 0.371593 0.000000 -0.316519
v 0.368954 0.000000 -0.324393
v 0.365625 0.000000 -0.332125
v 0.361567 0.000000 -0.339795
v 0.356741 0.000000 -0.347482
v 0.351109 0.000000 -0.355266
v 0.344634 0.000000 -0.363227
v 0.337277 0.000000 -0.371445
v 0.329000 0.000000 -0.380000
v 0.421000 0.000000 -0.380000
v 0.296000 0.000000 -0.293000
v 0.295263 0.000000 -0.281054
v 0.293102 0.000000 -0.269764
v 0.289594 0.000000 -0.259203
v 0.284815 0.000000 -0.249444
v 0.278841 0.000000 -0.240561
v 0.271750 0.000000 -0.232625
v 0.263617 0.000000 -0.225710
v 0.254519 0.000000 -0.219889
v 0.244531 0.000000 -0.215234
v 0.233732 0.000000 -0.211819
v 0.222196 0.000000 -0.209717
v 0.210000 0.000000 -0.209000
v 0.196885 0.000000 -0.209678
v 0.184583 0.000000 -0.211671
v 0.173156 0.000000 -0.214922
v 0.162667 0.000000 -0.219370
v 0.153177 0.000000 -0.224958
v 0.144750 0.000000 -0.231625
v 0.137448 0.000000 -0.239313
v 0.131333 0.000000 -0.247963
v 0.126469 0.000000 -0.257516
v 0.122917 0.000000 -0.267912
v 0.120740 0.000000 -0.279093
v 0.120000 0.000000 -0.291000
v 0.120815 0.000000 -0.301837
v 0.123190 0.000000 -0.312278
v 0.127016 0.000000 -0.322219
v 0.132185 0.000000 -0.331556
v 0.138591 0.000000 -0.340184
v 0.146125 0.000000 -0.348000
v 0.154680 0.000000 -0.354899
v 0.164148 0.000000 -0.360778
v 0.174422 0.000000 -0.365531
v 0.185393 0.000000 -0.369056
v 0.196955 0.000000 -0.371247
v 0.209000 0.000000 -0.372000
v 0.220585 0.000000 -0.371267
v 0.231764 0.000000 -0.369134
v 0.242422 0.000000 -0.365703
v 0.252444 0.000000 -0.361074
v 0.261717 0.000000 -0.355348
v 0.270125 0.000000 -0.348625
v 0.277554 0.000000 -0.341006
v 0.283889 0.000000 -0.332593
v 0.289016 0.000000 -0.323484
v 0.292819 0.000000 -0.313782
v 0.295186 0.000000 -0.303587
v 0.333000 0.000000 0.094000
v 0.332050 0.000000 0.103892
v 0.329232 0.000000 0.113051
v 0.324594 0.000000 0.121453
v 0.318185 0.000000 0.129074
v 0.310054 0.000000 0.135889
v 0.300250 0.000000 0.141875
v 0.288821 0.000000 0.147006
v 0.275815 0.000000 0.151259
v 0.261281 0.000000 0.154609
v 0.245269 0.000000 0.157032
v 0.227825 0.000000 0.158504
v 0.209000 0.000000 0.159000
v 0.189525 0.000000 0.158502
v 0.171616 0.000000 0.157014
v 0.155297 0.000000 0.154547
v 0.140593 0.000000 0.151111
v 0.127527 0.000000 0.146717
v 0.116125 0.000000 0.141375
v 0.106410 0.000000 0.135095
v 0.098407 0.000000 0.127889
v 0.092141 0.000000 0.119766
v 0.087634 0.000000 0.110736
v 0.084913 0.000000 0.100811
v 0.084000 0.000000 0.090000
v 0.084861 0.000000 0.080259
v 0.087389 0.000000 0.071074
v 0.091500 0.000000 0.062500
v 0.097111 0.000000 0.054593
v 0.104139 0.000000 0.047407
v 0.112500 0.000000 0.041000
v 0.122111 0.000000 0.035426
v 0.132889 0.000000 0.030741
v 0.144750 0.000000 0.027000
v 0.157611 0.000000 0.024259
v 0.171389 0.000000 0.022574
v 0.186000 0.000000 0.022000
v 0.200446 0.000000 0.022328
v 0.215986 0.000000 0.023375
v 0.232172 0.000000 0.025234
v 0.248556 0.000000 0.028000
v 0.264689 0.000000 0.031766
v 0.280125 0.000000 0.036625
v 0.294415 0.000000 0.042672
v 0.307111 0.000000 0.050000
v 0.317766 0.000000 0.058703
v 0.325931 0.000000 0.068875
v 0.331158 0.000000 0.080609
vn 0.000000 1.000000 0.000000
usemtl None
s off
f 3//1 1//1 2//1
f 3//1 160//1 1//1
f 4//1 160//1 3//1
f 5//1 160//1 4//1
f 6//1 160//1 5//1
f 7//1 160//1 6//1
f 8//1 160//1 7//1
f 9//1 160//1 8//1
f 10//1 159//1 9//1
f 159//1 160//1 9//1
f 10//1 158//1 159//1
f 11//1 196//1 10//1
f 196//1 197//1 10//1
f 197//1 158//1 10//1
f 198//1 158//1 197//1
f 198//1 157//1 158//1
f 199//1 157//1 198//1
f 11//1 195//1 196//1
f 200//1 157//1 199//1
f 11//1 194//1 195//1
f 201//1 157//1 200//1
f 11//1 193//1 194//1
f 201//1 156//1 157//1
f 202//1 156//1 201//1
f 11//1 192//1 193//1
f 12//1 192//1 11//1
f 203//1 156//1 202//1
f 203//1 155//1 156//1
f 12//1 191//1 192//1
f 204//1 155//1 203//1
f 12//1 190//1 191//1
f 204//1 154//1 155//1
f 205//1 154//1 204//1
f 12//1 189//1 190//1
f 205//1 153//1 154//1
f 13//1 189//1 12//1
f 206//1 153//1 205//1
f 206//1 152//1 153//1
f 13//1 188//1 189//1
f 206//1 151//1 152//1
f 207//1 151//1 206//1
f 13//1 187//1 188//1
f 14//1 187//1 13//1
f 207//1 150//1 151//1
f 208//1 150//1 207//1
f 14//1 186//1 187//1
f 208//1 149//1 150//1
f 161//1 149//1 208//1
f 14//1 185//1 186//1
f 161//1 148//1 149//1
f 15//1 185//1 14//1
f 162//1 148//1 161//1
f 162//1 147//1 148//1
f 15//1 184//1 185//1
f 16//1 184//1 15//1
f 162//1 146//1 147//1
f 163//1 146//1 162//1
f 16//1 183//1 184//1
f 17//1 183//1 16//1
f 163//1 145//1 146//1
f 18//1 183//1 17//1
f 164//1 145//1 163//1
f 18//1 182//1 183//1
f 164//1 144//1 145//1
f 19//1 182//1 18//1
f 165//1 144//1 164//1
f 19//1 181//1 182//1
f 20//1 181//1 19//1
f 165//1 143//1 144//1
f 166//1 143//1 165//1
f 21//1 181//1 20//1
f 21//1 180//1 181//1
f 166//1 142//1 143//1
f 22//1 180//1 21//1
f 167//1 142//1 166//1
f 22//1 179//1 180//1
f 23//1 179//1 22//1
f 167//1 141//1 142//1
f 168//1 141//1 167//1
f 23//1 178//1 179//1
f 24//1 178//1 23//1
f 169//1 141//1 168//1
f 169//1 140//1 141//1
f 24//1 177//1 178//1
f 25//1 177//1 24//1
f 170//1 140//1 169//1
f 25//1 176//1 177//1
f 170//1 139//1 140//1
f 26//1 176//1 25//1
f 171//1 139//1 170//1
f 26//1 175//1 176//1
f 172//1 139//1 171//1
f 26//1 174//1 175//1
f 27//1 174//1 26//1
f 173//1 139//1 172//1
f 27//1 173//1 174//1
f 27//1 139//1 173//1
f 27//1 138//1 139//1
f 28//1 138//1 27//1
f 28//1 137//1 138//1
f 29//1 137//1 28//1
f 29//1 136//1 137//1
f 30//1 136//1 29//1
f 31//1 136//1 30//1
f 31//1 135//1 136//1
f 32//1 135//1 31//1
f 32//1 134//1 135//1
f 33//1 134//1 32//1
f 34//1 134//1 33//1
f 35//1 134//1 34//1
f 35//1 133//1 134//1
f 36//1 133//1 35//1
f 37//1 133//1 36//1
f 38//1 133//1 37//1
f 38//1 132//1 133//1
f 39//1 132//1 38//1
f 40//1 132//1 39//1
f 41//1 132//1 40//1
f 41//1 131//1 132//1
f 42//1 131//1 41//1
f 42//1 130//1 131//1
f 43//1 130//1 42//1
f 43//1 129//1 130//1
f 44//1 129//1 43//1
f 44//1 128//1 129//1
f 45//1 128//1 44//1
f 45//1 127//1 128//1
f 45//1 126//1 127//1
f 46//1 126//1 45//1
f 46//1 125//1 126//1
f 47//1 125//1 46//1
f 47//1 124//1 125//1
f 48//1 124//1 47//1
f 49//1 124//1 48//1
f 49//1 123//1 124//1
f 50//1 123//1 49//1
f 50//1 122//1 123//1
f 51//1 122//1 50//1
f 51//1 121//1 122//1
f 52//1 121//1 51//1
f 52//1 120//1 121//1
f 53//1 120//1 52//1
f 53//1 119//1 120//1
f 54//1 119//1 53//1
f 54//1 118//1 119//1
f 55//1 118//1 54//1
f 55//1 117//1 118//1
f 56//1 117//1 55//1
f 56//1 116//1 117//1
f 57//1 116//1 56//1
f 57//1 115//1 116//1
f 58//1 115//1 57//1
f 58//1 114//1 115//1
f 59//1 114//1 58//1
f 59//1 113//1 114//1
f 60//1 113//1 59//1
f 60//1 112//1 113//1
f 61//1 112//1 60//1
f 61//1 111//1 112//1
f 62//1 111//1 61//1
f 62//1 110//1 111//1
f 63//1 110//1 62//1
f 63//1 109//1 110//1
f 64//1 109//1 63//1
f 64//1 108//1 109//1
f 65//1 108//1 64//1
f 66//1 108//1 65//1
f 66//1 107//1 108//1
f 67//1 107//1 66//1
f 67//1 106//1 107//1
f 68//1 106//1 67//1
f 68//1 105//1 106//1
f 69//1 105//1 68//1
f 69//1 104//1 105//1
f 70//1 245//1 69//1
f 245//1 104//1 69//1
f 245//1 246//1 104//1
f 246//1 103//1 104//1
f 70//1 244//1 245//1
f 247//1 103//1 246//1
f 70//1 243//1 244//1
f 248//1 103//1 247//1
f 70//1 242//1 243//1
f 71//1 242//1 70//1
f 249//1 103//1 248//1
f 71//1 241//1 242//1
f 250//1 103//1 249//1
f 71//1 240//1 241//1
f 251//1 103//1 250//1
f 251//1 102//1 103//1
f 71//1 239//1 240//1
f 252//1 102//1 251//1
f 72//1 239//1 71//1
f 72//1 238//1 239//1
f 253//1 102//1 252//1
f 253//1 101//1 102//1
f 72//1 237//1 238//1
f 73//1 237//1 72//1
f 254//1 101//1 253//1
f 73//1 236//1 237//1
f 255//1 101//1 254//1
f 255//1 100//1 101//1
f 73//1 235//1 236//1
f 74//1 235//1 73//1
f 256//1 100//1 255//1
f 74//1 234//1 235//1
f 256//1 99//1 100//1
f 75//1 234//1 74//1
f 75//1 233//1 234//1
f 209//1 99//1 256//1
f 209//1 98//1 99//1
f 75//1 232//1 233//1
f 76//1 232//1 75//1
f 210//1 98//1 209//1
f 76//1 231//1 232//1
f 211//1 98//1 210//1
f 211//1 97//1 98//1
f 76//1 230//1 231//1
f 212//1 97//1 211//1
f 77//1 230//1 76//1
f 77//1 229//1 230//1
f 213//1 97//1 212//1
f 77//1 228//1 229//1
f 213//1 96//1 97//1
f 214//1 96//1 213//1
f 78//1 228//1 77//1
f 78//1 227//1 228//1
f 215//1 96//1 214//1
f 78//1 226//1 227//1
f 216//1 96//1 215//1
f 78//1 225//1 226//1
f 216//1 95//1 96//1
f 217//1 95//1 216//1
f 79//1 225//1 78//1
f 79//1 224//1 225//1
f 218//1 95//1 217//1
f 79//1 223//1 224//1
f 219//1 95//1 218//1
f 79//1 222//1 223//1
f 220//1 95//1 219//1
f 79//1 221//1 222//1
f 221//1 95//1 220//1
f 79//1 95//1 221//1
f 79//1 94//1 95//1
f 80//1 94//1 79//1
f 80//1 93//1 94//1
f 81//1 93//1 80//1
f 82//1 93//1 81//1
f 82//1 92//1 93//1
f 83//1 92//1 82//1
f 83//1 91//1 92//1
f 84//1 91//1 83//1
f 84//1 90//1 91//1
f 85//1 90//1 84//1
f 85//1 89//1 90//1
f 86//1 89//1 85//1
f 86//1 88//1 89//1
f 87//1 88//1 86//1
