# Blender v2.76 (sub 0) OBJ File: 'alphabet.blend'
# www.blender.org
mtllib ~.mtl
o ~_Mesh.001
v 0.025000 0.000000 -0.198000
v 0.036942 0.000000 -0.207091
v 0.048782 0.000000 -0.215810
v 0.060547 0.000000 -0.224078
v 0.072259 0.000000 -0.231815
v 0.083944 0.000000 -0.238940
v 0.095625 0.000000 -0.245375
v 0.107327 0.000000 -0.251039
v 0.119074 0.000000 -0.255852
v 0.130891 0.000000 -0.259734
v 0.142801 0.000000 -0.262606
v 0.154829 0.000000 -0.264388
v 0.167000 0.000000 -0.265000
v 0.176352 0.000000 -0.264615
v 0.185898 0.000000 -0.263505
v 0.195625 0.000000 -0.261734
v 0.205519 0.000000 -0.259370
v 0.215565 0.000000 -0.256479
v 0.225750 0.000000 -0.253125
v 0.236060 0.000000 -0.249376
v 0.246481 0.000000 -0.245296
v 0.257000 0.000000 -0.240953
v 0.267602 0.000000 -0.236412
v 0.278273 0.000000 -0.231739
v 0.289000 0.000000 -0.227000
v 0.299538 0.000000 -0.222261
v 0.310134 0.000000 -0.217588
v 0.320766 0.000000 -0.213047
v 0.331407 0.000000 -0.208704
v 0.342035 0.000000 -0.204624
v 0.352625 0.000000 -0.200875
v 0.363152 0.000000 -0.197521
v 0.373593 0.000000 -0.194630
v 0.383922 0.000000 -0.192266
v 0.394116 0.000000 -0.190495
v 0.404150 0.000000 -0.189385
v 0.414000 0.000000 -0.189000
v 0.427013 0.000000 -0.189591
v 0.440023 0.000000 -0.191310
v 0.452984 0.000000 -0.194078
v 0.465852 0.000000 -0.197815
v 0.478581 0.000000 -0.202440
v 0.491125 0.000000 -0.207875
v 0.503440 0.000000 -0.214039
v 0.515482 0.000000 -0.220852
v 0.527203 0.000000 -0.228234
v 0.538560 0.000000 -0.236106
v 0.549508 0.000000 -0.244388
v 0.560000 0.000000 -0.253000
v 0.560000 0.000000 -0.336000
v 0.549053 0.000000 -0.327329
v 0.537755 0.000000 -0.318884
v 0.526172 0.000000 -0.310766
v 0.514370 0.000000 -0.303074
v 0.502416 0.000000 -0.295910
v 0.490375 0.000000 -0.289375
v 0.478313 0.000000 -0.283569
v 0.466296 0.000000 -0.278593
v 0.454391 0.000000 -0.274547
v 0.442662 0.000000 -0.271532
v 0.431177 0.000000 -0.269650
v 0.420000 0.000000 -0.269000
v 0.410668 0.000000 -0.269385
v 0.401181 0.000000 -0.270495
v 0.391547 0.000000 -0.272266
v 0.381778 0.000000 -0.274630
v 0.371884 0.000000 -0.277521
v 0.361875 0.000000 -0.280875
v 0.351762 0.000000 -0.284624
v 0.341556 0.000000 -0.288704
v 0.331266 0.000000 -0.293047
v 0.320903 0.000000 -0.297588
v 0.310477 0.000000 -0.302261
v 0.300000 0.000000 -0.307000
v 0.289481 0.000000 -0.311739
v 0.278931 0.000000 -0.316412
v 0.268359 0.000000 -0.320953
v 0.257778 0.000000 -0.325296
v 0.247196 0.000000 -0.329376
v 0.236625 0.000000 -0.333125
v 0.226075 0.000000 -0.336479
v 0.215556 0.000000 -0.339370
v 0.205078 0.000000 -0.341734
v 0.194653 0.000000 -0.343505
v 0.184290 0.000000 -0.344615
v 0.174000 0.000000 -0.345000
v 0.160546 0.000000 -0.344428
v 0.147199 0.000000 -0.342759
v 0.133984 0.000000 -0.340063
v 0.120926 0.000000 -0.336407
v 0.108048 0.000000 -0.331863
v 0.095375 0.000000 -0.326500
v 0.082931 0.000000 -0.320387
v 0.070741 0.000000 -0.313593
v 0.058828 0.000000 -0.306187
v 0.047218 0.000000 -0.298241
v 0.035933 0.000000 -0.289822
v 0.025000 0.000000 -0.281000
vn 0.000000 1.000000 0.000000
usemtl None
s off
f 87//1 85//1 86//1
f 87//1 84//1 85//1
f 88//1 84//1 87//1
f 88//1 83//1 84//1
f 89//1 83//1 88//1
f 89//1 82//1 83//1
f 90//1 82//1 89//1
f 90//1 81//1 82//1
f 90//1 80//1 81//1
f 91//1 80//1 90//1
f 51//1 49//1 50//1
f 91//1 79//1 80//1
f 92//1 79//1 91//1
f 92//1 78//1 79//1
f 52//1 49//1 51//1
f 93//1 78//1 92//1
f 93//1 77//1 78//1
f 93//1 76//1 77//1
f 94//1 76//1 93//1
f 53//1 49//1 52//1
f 94//1 75//1 76//1
f 95//1 75//1 94//1
f 95//1 74//1 75//1
f 54//1 49//1 53//1
f 95//1 73//1 74//1
f 96//1 73//1 95//1
f 55//1 49//1 54//1
f 96//1 72//1 73//1
f 97//1 72//1 96//1
f 97//1 71//1 72//1
f 56//1 49//1 55//1
f 97//1 70//1 71//1
f 98//1 70//1 97//1
f 57//1 49//1 56//1
f 98//1 69//1 70//1
f 98//1 68//1 69//1
f 58//1 49//1 57//1
f 1//1 2//1 98//1
f 2//1 3//1 98//1
f 3//1 4//1 98//1
f 4//1 5//1 98//1
f 5//1 6//1 98//1
f 6//1 7//1 98//1
f 7//1 8//1 98//1
f 8//1 9//1 98//1
f 9//1 10//1 98//1
f 10//1 11//1 98//1
f 11//1 12//1 98//1
f 12//1 68//1 98//1
f 12//1 67//1 68//1
f 59//1 49//1 58//1
f 12//1 13//1 67//1
f 13//1 66//1 67//1
f 13//1 65//1 66//1
f 60//1 49//1 59//1
f 13//1 64//1 65//1
f 61//1 49//1 60//1
f 13//1 63//1 64//1
f 62//1 49//1 61//1
f 13//1 62//1 63//1
f 13//1 49//1 62//1
f 14//1 49//1 13//1
f 15//1 49//1 14//1
f 16//1 49//1 15//1
f 17//1 49//1 16//1
f 18//1 49//1 17//1
f 19//1 49//1 18//1
f 20//1 49//1 19//1
f 20//1 48//1 49//1
f 21//1 48//1 20//1
f 22//1 48//1 21//1
f 22//1 47//1 48//1
f 23//1 47//1 22//1
f 24//1 47//1 23//1
f 24//1 46//1 47//1
f 25//1 46//1 24//1
f 25//1 45//1 46//1
f 26//1 45//1 25//1
f 27//1 45//1 26//1
f 27//1 44//1 45//1
f 28//1 44//1 27//1
f 28//1 43//1 44//1
f 29//1 43//1 28//1
f 30//1 43//1 29//1
f 30//1 42//1 43//1
f 31//1 42//1 30//1
f 31//1 41//1 42//1
f 32//1 41//1 31//1
f 32//1 40//1 41//1
f 33//1 40//1 32//1
f 34//1 40//1 33//1
f 34//1 39//1 40//1
f 35//1 39//1 34//1
f 35//1 38//1 39//1
f 36//1 38//1 35//1
f 36//1 37//1 38//1
